<svg width="60" height="60" viewBox="0 0 60 60" fill="none" xmlns="http://www.w3.org/2000/svg">
<path fill-rule="evenodd" clip-rule="evenodd" d="M31.8741 25.471V26.7096C23.3697 29.3051 26.5308 36.8978 31.8741 33.746V35.0689C24.2448 40.6225 16.4628 29.0808 31.8741 25.471ZM36.9345 22.8511V36.2455H33.5256V26.3298V22.9499C33.5256 22.3937 33.4165 21.8715 33.1475 21.3817C32.773 20.6998 32.0669 20.1181 31.3072 19.9437C30.4096 19.7366 29.2115 19.7259 28.3825 20.1518L28.2404 20.234C28.0959 20.3241 27.9649 20.4488 27.8559 20.5788C27.3975 21.126 27.2834 21.9856 27.3116 22.6783C27.3116 22.6787 27.3116 22.679 27.3117 22.6793C27.4768 23.7151 26.6787 24.6549 25.6287 24.6549C24.6783 24.6549 23.911 23.8763 23.9243 22.9278C23.9243 22.9264 23.9243 22.925 23.9245 22.9236C23.925 22.5206 24.0309 22.0996 24.2052 21.7373C24.6816 20.7474 25.6744 20.049 26.6458 19.5981C28.7252 18.6327 31.4794 18.4114 33.5529 18.9888C35.6409 19.5702 36.9345 20.8957 36.9345 22.8511H36.9345Z" fill="#EE3E80"/>
<path fill-rule="evenodd" clip-rule="evenodd" d="M35.3236 15C36.268 15 37.0339 15.7661 37.0339 16.7108C37.0339 17.6556 36.268 18.4217 35.3236 18.4217C34.3792 18.4217 33.6133 17.6556 33.6133 16.7108C33.6133 15.7661 34.3792 15 35.3236 15Z" fill="#EE3E80"/>
<path d="M26.1488 44.4788H25.3617V43.9375C25.2675 44.0091 25.1771 44.0819 25.0867 44.1548C24.9976 44.2289 24.9009 44.2955 24.7967 44.357C24.6925 44.4185 24.577 44.4688 24.4514 44.5064C24.3245 44.5441 24.1777 44.5629 24.0107 44.5629C23.8562 44.5629 23.7169 44.5378 23.5913 44.4876C23.467 44.4374 23.3604 44.3683 23.2724 44.2804C23.1833 44.1912 23.1167 44.087 23.069 43.9677C23.0226 43.8471 23 43.7177 23 43.5771C23 43.4076 23.0339 43.2556 23.1004 43.1187C23.1682 42.983 23.2599 42.8612 23.3766 42.7532C23.4934 42.6452 23.629 42.5497 23.7847 42.4656C23.9404 42.3827 24.1061 42.3074 24.2793 42.2421C24.4539 42.1755 24.6334 42.1165 24.8192 42.065C25.0037 42.0135 25.1846 41.9658 25.3616 41.9218V41.6757C25.3616 41.496 25.3428 41.3441 25.3076 41.221C25.2724 41.0967 25.221 40.9975 25.1557 40.9209C25.0891 40.8443 25.0088 40.7903 24.9146 40.7576C24.8192 40.7237 24.7137 40.7073 24.5957 40.7073C24.4639 40.7073 24.3559 40.7249 24.2718 40.7588C24.1889 40.7927 24.1236 40.8392 24.076 40.8944C24.0282 40.951 23.9956 41.0163 23.978 41.0879C23.9604 41.1607 23.9529 41.2336 23.9529 41.3077C23.9529 41.3755 23.9466 41.442 23.9353 41.5061C23.9252 41.5702 23.904 41.6254 23.875 41.6732C23.8462 41.7209 23.806 41.7598 23.7558 41.7887C23.7055 41.8188 23.6415 41.8339 23.5625 41.8339C23.5009 41.8339 23.4456 41.8214 23.3954 41.7987C23.3452 41.7749 23.3013 41.7422 23.2648 41.7007C23.2272 41.6593 23.1996 41.6103 23.1794 41.5538C23.1607 41.4973 23.1506 41.4357 23.1506 41.3692C23.1506 41.2398 23.1933 41.118 23.2787 41.005C23.3653 40.8932 23.4808 40.7952 23.6252 40.7124C23.7695 40.6307 23.939 40.5654 24.1324 40.5177C24.3257 40.47 24.5304 40.4461 24.7426 40.4461C25.0025 40.4461 25.2222 40.4712 25.4017 40.5215C25.58 40.5717 25.7256 40.642 25.8362 40.7337C25.9454 40.8241 26.0257 40.9346 26.0747 41.064C26.1237 41.1946 26.1487 41.3378 26.1487 41.4948V44.4788L26.1488 44.4788ZM25.3617 42.1755C25.2486 42.2119 25.1319 42.2546 25.0101 42.3011C24.8884 42.3475 24.769 42.399 24.6535 42.4568C24.5368 42.5146 24.4263 42.5773 24.3208 42.6452C24.2153 42.7118 24.1224 42.7834 24.0421 42.86C23.963 42.9353 23.9002 43.017 23.8525 43.1024C23.8061 43.189 23.7834 43.2782 23.7834 43.3712C23.7834 43.4666 23.801 43.5583 23.8362 43.6449C23.8726 43.7328 23.9191 43.8082 23.978 43.8735C24.0371 43.9388 24.1049 43.9903 24.1827 44.028C24.2593 44.0657 24.3396 44.0858 24.4237 44.0858C24.5116 44.0858 24.5958 44.0732 24.6748 44.0506C24.7552 44.0267 24.8318 43.9953 24.9071 43.9564C24.9812 43.9175 25.0565 43.871 25.1318 43.8183C25.206 43.7655 25.2825 43.7102 25.3616 43.6512V42.1755L25.3617 42.1755ZM27.448 40.5277H28.2277V41.2738C28.3043 41.1632 28.3859 41.0577 28.4751 40.9573C28.563 40.8568 28.6546 40.7688 28.75 40.6922C28.8454 40.6169 28.9446 40.5566 29.0463 40.5127C29.148 40.4687 29.2523 40.4461 29.3577 40.4461C29.4431 40.4461 29.5234 40.4587 29.5963 40.485C29.6703 40.5102 29.7344 40.5453 29.7896 40.588C29.8448 40.6307 29.8888 40.6809 29.9201 40.7387C29.9515 40.7965 29.9679 40.8568 29.9679 40.9208C29.9679 41.0489 29.9277 41.1444 29.8486 41.2097C29.7683 41.275 29.6577 41.3077 29.5159 41.3077C29.4268 41.3077 29.3564 41.2976 29.3037 41.28C29.251 41.2612 29.2033 41.2398 29.1606 41.2172C29.1179 41.1933 29.074 41.1732 29.03 41.1544C28.9861 41.1356 28.9308 41.1267 28.8643 41.1267C28.8128 41.1267 28.7613 41.1418 28.7086 41.1732C28.6559 41.2034 28.6031 41.2461 28.5504 41.3014C28.4976 41.3566 28.4437 41.4219 28.3897 41.496C28.3357 41.5714 28.2817 41.653 28.2277 41.7409V44.4788H27.4481V40.5277L27.448 40.5277ZM32.9016 43.9752C32.7962 44.1561 32.6568 44.2992 32.4823 44.4047C32.3078 44.5102 32.0931 44.5629 31.8382 44.5629C31.7064 44.5629 31.5922 44.5416 31.4942 44.4976C31.3975 44.4524 31.3172 44.3909 31.2545 44.3092C31.1904 44.2289 31.1427 44.1322 31.1126 44.0191C31.0812 43.9061 31.0661 43.7805 31.0661 43.6435V40.858H30.3818V40.6633C30.6028 40.6633 30.7836 40.6231 30.9267 40.544C31.0686 40.4636 31.1853 40.3556 31.2757 40.22C31.3662 40.0831 31.4377 39.9261 31.4892 39.7465C31.5407 39.5681 31.5859 39.3772 31.6248 39.1763H31.8496V40.5277H32.7359V40.8579H31.8496V43.6435C31.8496 43.7026 31.8609 43.7579 31.8822 43.8094C31.9048 43.8609 31.9349 43.9048 31.9726 43.9437C32.0115 43.9814 32.0567 44.0116 32.1094 44.0341C32.1622 44.0555 32.2174 44.0668 32.2764 44.0668C32.3643 44.0668 32.4447 44.0454 32.5175 44.0028C32.5891 43.9588 32.6531 43.9061 32.7071 43.842L32.9017 43.9751L32.9016 43.9752ZM34.4117 41.2486C34.6503 40.9811 34.8976 40.7802 35.155 40.647C35.4124 40.5127 35.6748 40.4461 35.9422 40.4461C36.079 40.4461 36.2084 40.4775 36.3301 40.5403C36.4519 40.6031 36.5574 40.6872 36.6466 40.7952C36.7357 40.9032 36.806 41.0301 36.8575 41.177C36.909 41.3227 36.9353 41.4771 36.9353 41.6417V44.4788H36.1519V41.7748C36.1519 41.5149 36.0929 41.3165 35.9749 41.182C35.8581 41.0477 35.7062 40.9798 35.5191 40.9798C35.4362 40.9798 35.3471 40.9936 35.2542 41.02C35.1612 41.0477 35.0671 41.0853 34.9717 41.1356C34.875 41.1858 34.7808 41.2461 34.6867 41.3164C34.5913 41.3867 34.5009 41.4646 34.4117 41.55V44.4788H33.6283V38.7279L34.1882 38.5032H34.4117V41.2486L34.4117 41.2486Z" fill="#EE3E80"/>
</svg>
