<svg width="330" height="15" viewBox="0 0 330 15" fill="none" xmlns="http://www.w3.org/2000/svg">
<g style="mix-blend-mode:multiply" opacity="0.57">
<path d="M322.545 13.9396H7.37708C5.65308 13.9392 3.99994 13.5738 2.78115 12.9237C1.56236 12.2736 0.877685 11.392 0.877686 10.4728V3.93166C0.877685 3.01246 1.56236 2.13089 2.78115 1.48078C3.99994 0.830668 5.65308 0.465238 7.37708 0.464844H322.545C324.27 0.464844 325.924 0.830099 327.143 1.48025C328.363 2.13041 329.048 3.0122 329.048 3.93166V10.4728C329.048 10.9281 328.879 11.3789 328.553 11.7995C328.226 12.2201 327.747 12.6023 327.143 12.9242C326.539 13.2461 325.823 13.5015 325.034 13.6757C324.245 13.8499 323.399 13.9396 322.545 13.9396Z" fill="#B8ECEB"/>
</g>
<path d="M66.0368 3.87892V10.4201C66.0394 10.874 65.8742 11.3237 65.5508 11.7436C65.2274 12.1634 64.7521 12.5452 64.1519 12.8672C63.5517 13.1891 62.8385 13.4448 62.053 13.6198C61.2674 13.7948 60.425 13.8855 59.5736 13.8869H7.92155C6.20199 13.8841 4.55492 13.5174 3.34241 12.8673C2.12989 12.2172 1.45121 11.3369 1.45565 10.4201V3.87892C1.45121 2.96209 2.12989 2.08184 3.34241 1.43173C4.55492 0.781622 6.20199 0.414865 7.92155 0.412109H59.5736C60.423 0.41274 61.2639 0.502903 62.0477 0.677414C62.8315 0.851924 63.5428 1.10734 64.1408 1.42897C64.744 1.7506 65.222 2.13261 65.5474 2.55306C65.8728 2.9735 66.0391 3.42409 66.0368 3.87892Z" fill="#30A49B"/>
<g style="mix-blend-mode:screen" opacity="0.49">
<g style="mix-blend-mode:screen" opacity="0.49">
<path d="M62.3258 2.49599C61.7595 2.19175 61.0858 1.95036 60.3435 1.78578C59.6013 1.6212 58.8051 1.53668 58.0012 1.53711H9.15134C7.52544 1.53987 5.9681 1.88668 4.82154 2.50134C3.67499 3.11601 3.03306 3.94823 3.03676 4.81512V5.94347C3.03675 5.07786 3.68029 4.24755 4.82644 3.6345C5.9726 3.02144 7.52786 2.67565 9.15134 2.6729H57.9929C58.797 2.67266 59.5932 2.75741 60.3355 2.92225C61.0778 3.08709 61.7514 3.32875 62.3174 3.63325C63.4659 4.24905 64.1095 5.08249 64.1074 5.9509V4.8285C64.1129 4.39633 63.9584 3.96782 63.6527 3.56756C63.3469 3.16729 62.896 2.80314 62.3258 2.49599Z" fill="#30A49B"/>
</g>
</g>
<g style="mix-blend-mode:multiply" opacity="0.19">
<g style="mix-blend-mode:multiply" opacity="0.19">
<path d="M59.3943 7.71291H7.74498C6.02542 7.71015 4.37828 7.3434 3.16576 6.69329C1.95325 6.04318 1.27463 5.16293 1.27907 4.24609V10.4215C1.27463 11.3384 1.95325 12.2186 3.16576 12.8687C4.37828 13.5188 6.02542 13.8856 7.74498 13.8884H59.3943C60.2458 13.8872 61.0886 13.7966 61.8745 13.6217C62.6603 13.4468 63.3739 13.1911 63.9743 12.8692C64.5748 12.5472 65.0504 12.1654 65.3739 11.7454C65.6975 11.3254 65.8627 10.8756 65.8602 10.4215V4.24609C65.8627 4.70012 65.6975 5.14997 65.3739 5.56994C65.0504 5.98991 64.5748 6.37177 63.9743 6.69372C63.3739 7.01566 62.6603 7.27137 61.8745 7.44625C61.0886 7.62112 60.2458 7.71174 59.3943 7.71291Z" fill="#5C647B"/>
</g>
</g>
<g style="mix-blend-mode:multiply" opacity="0.42">
<g style="mix-blend-mode:multiply" opacity="0.42">
<path d="M59.3943 12.5781H7.74498C6.02542 12.5754 4.37828 12.2086 3.16576 11.5585C1.95325 10.9084 1.27463 10.0282 1.27907 9.11133V10.421C1.27463 11.3379 1.95325 12.2181 3.16576 12.8682C4.37828 13.5183 6.02542 13.8851 7.74498 13.8879H59.3943C60.2458 13.8867 61.0886 13.7961 61.8745 13.6212C62.6603 13.4463 63.3739 13.1906 63.9743 12.8687C64.5748 12.5467 65.0504 12.1649 65.3739 11.7449C65.6975 11.3249 65.8627 10.8751 65.8602 10.421V9.11133C65.8627 9.56535 65.6975 10.0152 65.3739 10.4352C65.0504 10.8551 64.5748 11.237 63.9743 11.559C63.3739 11.8809 62.6603 12.1366 61.8745 12.3115C61.0886 12.4864 60.2458 12.577 59.3943 12.5781Z" fill="#5C647B"/>
</g>
</g>
<g style="mix-blend-mode:screen" opacity="0.49">
<g style="mix-blend-mode:screen" opacity="0.49">
<path d="M36.6349 0.412109L14.5939 13.8869H8.57404L29.5555 0.412109H36.6349Z" fill="#30A49B"/>
</g>
</g>
<g style="mix-blend-mode:screen" opacity="0.49">
<g style="mix-blend-mode:screen" opacity="0.49">
<path d="M61.2658 0.534014L41.8708 13.8869H23.2482L46.1898 0.412109H59.5733C60.1452 0.412188 60.7144 0.453189 61.2658 0.534014Z" fill="#30A49B"/>
</g>
</g>
<path d="M131.758 3.87892V10.4201C131.76 10.874 131.595 11.3237 131.272 11.7436C130.948 12.1634 130.473 12.5452 129.873 12.8672C129.273 13.1891 128.559 13.4448 127.774 13.6198C126.988 13.7948 126.146 13.8855 125.295 13.8869H73.6425C71.9229 13.8841 70.2759 13.5174 69.0634 12.8673C67.8508 12.2172 67.1722 11.3369 67.1766 10.4201V3.87892C67.1722 2.96209 67.8508 2.08184 69.0634 1.43173C70.2759 0.781622 71.9229 0.414865 73.6425 0.412109H125.295C126.144 0.41274 126.985 0.502903 127.769 0.677414C128.552 0.851924 129.264 1.10734 129.862 1.42897C130.465 1.7506 130.943 2.13261 131.268 2.55306C131.594 2.9735 131.76 3.42409 131.758 3.87892Z" fill="#30A49B"/>
<g style="mix-blend-mode:screen" opacity="0.49">
<g style="mix-blend-mode:screen" opacity="0.49">
<path d="M128.047 2.49599C127.48 2.19175 126.807 1.95036 126.064 1.78578C125.322 1.6212 124.526 1.53668 123.722 1.53711H74.8723C73.2464 1.53987 71.689 1.88668 70.5425 2.50134C69.3959 3.11601 68.754 3.94823 68.7577 4.81512V5.94347C68.7577 5.07786 69.4012 4.24755 70.5474 3.6345C71.6935 3.02144 73.2488 2.67565 74.8723 2.6729H123.714C124.518 2.67266 125.314 2.75741 126.056 2.92225C126.799 3.08709 127.472 3.32875 128.038 3.63325C129.187 4.24905 129.83 5.08249 129.828 5.9509V4.8285C129.834 4.39633 129.679 3.96782 129.374 3.56756C129.068 3.16729 128.617 2.80314 128.047 2.49599Z" fill="#30A49B"/>
</g>
</g>
<g style="mix-blend-mode:multiply" opacity="0.19">
<g style="mix-blend-mode:multiply" opacity="0.19">
<path d="M125.115 7.71291H73.4659C71.7464 7.71015 70.0992 7.3434 68.8867 6.69329C67.6742 6.04318 66.9956 5.16293 67 4.24609V10.4215C66.9956 11.3384 67.6742 12.2186 68.8867 12.8687C70.0992 13.5188 71.7464 13.8856 73.4659 13.8884H125.115C125.967 13.8872 126.81 13.7966 127.595 13.6217C128.381 13.4468 129.095 13.1911 129.695 12.8692C130.296 12.5472 130.771 12.1654 131.095 11.7454C131.418 11.3254 131.584 10.8756 131.581 10.4215V4.24609C131.584 4.70012 131.418 5.14997 131.095 5.56994C130.771 5.98991 130.296 6.37177 129.695 6.69372C129.095 7.01566 128.381 7.27137 127.595 7.44625C126.81 7.62112 125.967 7.71174 125.115 7.71291Z" fill="#5C647B"/>
</g>
</g>
<g style="mix-blend-mode:multiply" opacity="0.42">
<g style="mix-blend-mode:multiply" opacity="0.42">
<path d="M125.115 12.5781H73.4659C71.7464 12.5754 70.0992 12.2086 68.8867 11.5585C67.6742 10.9084 66.9956 10.0282 67 9.11133V10.421C66.9956 11.3379 67.6742 12.2181 68.8867 12.8682C70.0992 13.5183 71.7464 13.8851 73.4659 13.8879H125.115C125.967 13.8867 126.81 13.7961 127.595 13.6212C128.381 13.4463 129.095 13.1906 129.695 12.8687C130.296 12.5467 130.771 12.1649 131.095 11.7449C131.418 11.3249 131.584 10.8751 131.581 10.421V9.11133C131.584 9.56535 131.418 10.0152 131.095 10.4352C130.771 10.8551 130.296 11.237 129.695 11.559C129.095 11.8809 128.381 12.1366 127.595 12.3115C126.81 12.4864 125.967 12.577 125.115 12.5781Z" fill="#5C647B"/>
</g>
</g>
<g style="mix-blend-mode:screen" opacity="0.49">
<g style="mix-blend-mode:screen" opacity="0.49">
<path d="M102.356 0.412109L80.3148 13.8869H74.295L95.2765 0.412109H102.356Z" fill="#30A49B"/>
</g>
</g>
<g style="mix-blend-mode:screen" opacity="0.49">
<g style="mix-blend-mode:screen" opacity="0.49">
<path d="M126.987 0.534014L107.592 13.8869H88.9692L111.911 0.412109H125.294C125.866 0.412188 126.435 0.453189 126.987 0.534014Z" fill="#30A49B"/>
</g>
</g>
<path d="M322.546 14.4084H7.3777C5.4217 14.4072 3.54644 13.9924 2.16333 13.2549C0.780231 12.5175 0.00221393 11.5177 0 10.4748V3.93361C0.00221393 2.89071 0.780231 1.89087 2.16333 1.15343C3.54644 0.415993 5.4217 0.0011807 7.3777 2.80952e-07H322.546C323.515 -0.000194993 324.475 0.101404 325.37 0.299C326.266 0.496595 327.079 0.786315 327.765 1.1516C328.45 1.51689 328.994 1.95059 329.365 2.42794C329.736 2.90528 329.926 3.41692 329.926 3.93361V10.4748C329.924 11.5178 329.145 12.5176 327.761 13.255C326.378 13.9924 324.502 14.4072 322.546 14.4084ZM7.3777 0.94252C5.88683 0.9437 4.45764 1.25999 3.40344 1.82207C2.34924 2.38415 1.75602 3.14615 1.75381 3.94105V10.4822C1.75602 11.2771 2.34924 12.0391 3.40344 12.6012C4.45764 13.1632 5.88683 13.4795 7.3777 13.4807H322.546C324.037 13.4795 325.466 13.1632 326.52 12.6012C327.574 12.0391 328.168 11.2771 328.17 10.4822V3.94105C328.17 3.54722 328.025 3.15721 327.743 2.79333C327.46 2.42944 327.046 2.09881 326.523 1.82033C326.001 1.54185 325.381 1.32099 324.699 1.17037C324.016 1.01975 323.285 0.942325 322.546 0.94252H7.3777Z" fill="#7D7D7D"/>
</svg>
