<svg width="330" height="15" viewBox="0 0 330 15" fill="none" xmlns="http://www.w3.org/2000/svg">
<g style="mix-blend-mode:multiply" opacity="0.57">
<path d="M322.545 13.9396H7.37708C5.65308 13.9392 3.99994 13.5738 2.78115 12.9237C1.56236 12.2736 0.877685 11.392 0.877686 10.4728V3.93166C0.877685 3.01246 1.56236 2.13089 2.78115 1.48078C3.99994 0.830668 5.65308 0.465238 7.37708 0.464844H322.545C324.27 0.464844 325.924 0.830099 327.143 1.48025C328.363 2.13041 329.048 3.0122 329.048 3.93166V10.4728C329.048 10.9281 328.879 11.3789 328.553 11.7995C328.226 12.2201 327.747 12.6023 327.143 12.9242C326.539 13.2461 325.823 13.5015 325.034 13.6757C324.245 13.8499 323.399 13.9396 322.545 13.9396Z" fill="#B8ECEB"/>
</g>
<path d="M66.0368 3.87892V10.4201C66.0393 10.874 65.8741 11.3237 65.5507 11.7436C65.2273 12.1634 64.752 12.5452 64.1518 12.8672C63.5517 13.1891 62.8384 13.4448 62.0529 13.6198C61.2674 13.7948 60.4249 13.8855 59.5736 13.8869H7.92149C6.20193 13.8841 4.55486 13.5174 3.34234 12.8673C2.12983 12.2172 1.45114 11.3369 1.45559 10.4201V3.87892C1.45114 2.96209 2.12983 2.08184 3.34234 1.43173C4.55486 0.781622 6.20193 0.414865 7.92149 0.412109H59.5736C60.423 0.41274 61.2638 0.502903 62.0476 0.677414C62.8314 0.851924 63.5428 1.10734 64.1407 1.42897C64.7439 1.7506 65.2219 2.13261 65.5473 2.55306C65.8727 2.9735 66.039 3.42409 66.0368 3.87892Z" fill="#30A49B"/>
<g style="mix-blend-mode:screen" opacity="0.49">
<g style="mix-blend-mode:screen" opacity="0.49">
<path d="M62.3257 2.49599C61.7595 2.19175 61.0858 1.95036 60.3435 1.78578C59.6012 1.6212 58.8051 1.53668 58.0012 1.53711H9.15128C7.52538 1.53987 5.96803 1.88668 4.82148 2.50134C3.67493 3.11601 3.03299 3.94823 3.0367 4.81512V5.94347C3.03669 5.07786 3.68023 4.24755 4.82638 3.6345C5.97254 3.02144 7.5278 2.67565 9.15128 2.6729H57.9928C58.7969 2.67266 59.5932 2.75741 60.3354 2.92225C61.0777 3.08709 61.7513 3.32875 62.3174 3.63325C63.4658 4.24905 64.1095 5.08249 64.1074 5.9509V4.8285C64.1129 4.39633 63.9583 3.96782 63.6526 3.56756C63.3469 3.16729 62.896 2.80314 62.3257 2.49599Z" fill="#30A49B"/>
</g>
</g>
<g style="mix-blend-mode:multiply" opacity="0.19">
<g style="mix-blend-mode:multiply" opacity="0.19">
<path d="M59.3942 7.71291H7.74492C6.02535 7.71015 4.37822 7.3434 3.1657 6.69329C1.95319 6.04318 1.27457 5.16293 1.27901 4.24609V10.4215C1.27457 11.3384 1.95319 12.2186 3.1657 12.8687C4.37822 13.5188 6.02535 13.8856 7.74492 13.8884H59.3942C60.2458 13.8872 61.0886 13.7966 61.8744 13.6217C62.6603 13.4468 63.3738 13.1911 63.9742 12.8692C64.5747 12.5472 65.0503 12.1654 65.3739 11.7454C65.6975 11.3254 65.8627 10.8756 65.8601 10.4215V4.24609C65.8627 4.70012 65.6975 5.14997 65.3739 5.56994C65.0503 5.98991 64.5747 6.37177 63.9742 6.69372C63.3738 7.01566 62.6603 7.27137 61.8744 7.44625C61.0886 7.62112 60.2458 7.71174 59.3942 7.71291Z" fill="#5C647B"/>
</g>
</g>
<g style="mix-blend-mode:multiply" opacity="0.42">
<g style="mix-blend-mode:multiply" opacity="0.42">
<path d="M59.3942 12.5781H7.74492C6.02535 12.5754 4.37822 12.2086 3.1657 11.5585C1.95319 10.9084 1.27457 10.0282 1.27901 9.11133V10.421C1.27457 11.3379 1.95319 12.2181 3.1657 12.8682C4.37822 13.5183 6.02535 13.8851 7.74492 13.8879H59.3942C60.2458 13.8867 61.0886 13.7961 61.8744 13.6212C62.6603 13.4463 63.3738 13.1906 63.9742 12.8687C64.5747 12.5467 65.0503 12.1649 65.3739 11.7449C65.6975 11.3249 65.8627 10.8751 65.8601 10.421V9.11133C65.8627 9.56535 65.6975 10.0152 65.3739 10.4352C65.0503 10.8551 64.5747 11.237 63.9742 11.559C63.3738 11.8809 62.6603 12.1366 61.8744 12.3115C61.0886 12.4864 60.2458 12.577 59.3942 12.5781Z" fill="#5C647B"/>
</g>
</g>
<g style="mix-blend-mode:screen" opacity="0.49">
<g style="mix-blend-mode:screen" opacity="0.49">
<path d="M36.6348 0.412109L14.5938 13.8869H8.57397L29.5555 0.412109H36.6348Z" fill="#30A49B"/>
</g>
</g>
<g style="mix-blend-mode:screen" opacity="0.49">
<g style="mix-blend-mode:screen" opacity="0.49">
<path d="M61.2657 0.534014L41.8707 13.8869H23.2482L46.1897 0.412109H59.5733C60.1451 0.412188 60.7144 0.453189 61.2657 0.534014Z" fill="#30A49B"/>
</g>
</g>
<path d="M322.546 14.4084H7.3777C5.4217 14.4072 3.54644 13.9924 2.16333 13.2549C0.780231 12.5175 0.00221393 11.5177 0 10.4748V3.93361C0.00221393 2.89071 0.780231 1.89087 2.16333 1.15343C3.54644 0.415993 5.4217 0.0011807 7.3777 2.80952e-07H322.546C323.515 -0.000194993 324.475 0.101404 325.37 0.299C326.266 0.496595 327.079 0.786315 327.765 1.1516C328.45 1.51689 328.994 1.95059 329.365 2.42794C329.736 2.90528 329.926 3.41692 329.926 3.93361V10.4748C329.924 11.5178 329.145 12.5176 327.761 13.255C326.378 13.9924 324.502 14.4072 322.546 14.4084ZM7.3777 0.94252C5.88683 0.9437 4.45764 1.25999 3.40344 1.82207C2.34924 2.38415 1.75602 3.14615 1.75381 3.94105V10.4822C1.75602 11.2771 2.34924 12.0391 3.40344 12.6012C4.45764 13.1632 5.88683 13.4795 7.3777 13.4807H322.546C324.037 13.4795 325.466 13.1632 326.52 12.6012C327.574 12.0391 328.168 11.2771 328.17 10.4822V3.94105C328.17 3.54722 328.025 3.15721 327.743 2.79333C327.46 2.42944 327.046 2.09881 326.523 1.82033C326.001 1.54185 325.381 1.32099 324.699 1.17037C324.016 1.01975 323.285 0.942325 322.546 0.94252H7.3777Z" fill="#7D7D7D"/>
</svg>
