<svg width="330" height="15" viewBox="0 0 330 15" fill="none" xmlns="http://www.w3.org/2000/svg">
<g style="mix-blend-mode:multiply" opacity="0.57">
<path d="M322.545 13.9396H7.37708C5.65308 13.9392 3.99994 13.5738 2.78115 12.9237C1.56236 12.2736 0.877685 11.392 0.877686 10.4728V3.93166C0.877685 3.01246 1.56236 2.13089 2.78115 1.48078C3.99994 0.830668 5.65308 0.465238 7.37708 0.464844H322.545C324.27 0.464844 325.924 0.830099 327.143 1.48025C328.363 2.13041 329.048 3.0122 329.048 3.93166V10.4728C329.048 10.9281 328.879 11.3789 328.553 11.7995C328.226 12.2201 327.747 12.6023 327.143 12.9242C326.539 13.2461 325.823 13.5015 325.034 13.6757C324.245 13.8499 323.399 13.9396 322.545 13.9396Z" fill="#B8ECEB"/>
</g>
<path d="M66.0368 3.87892V10.4201C66.0393 10.874 65.8741 11.3237 65.5507 11.7436C65.2273 12.1634 64.752 12.5452 64.1518 12.8672C63.5517 13.1891 62.8384 13.4448 62.0529 13.6198C61.2674 13.7948 60.4249 13.8855 59.5736 13.8869H7.92149C6.20193 13.8841 4.55486 13.5174 3.34234 12.8673C2.12983 12.2172 1.45114 11.3369 1.45559 10.4201V3.87892C1.45114 2.96209 2.12983 2.08184 3.34234 1.43173C4.55486 0.781622 6.20193 0.414865 7.92149 0.412109H59.5736C60.423 0.41274 61.2638 0.502903 62.0476 0.677414C62.8314 0.851924 63.5428 1.10734 64.1407 1.42897C64.7439 1.7506 65.2219 2.13261 65.5473 2.55306C65.8727 2.9735 66.039 3.42409 66.0368 3.87892Z" fill="#30A49B"/>
<g style="mix-blend-mode:screen" opacity="0.49">
<g style="mix-blend-mode:screen" opacity="0.49">
<path d="M62.3258 2.49599C61.7595 2.19175 61.0858 1.95036 60.3435 1.78578C59.6013 1.6212 58.8051 1.53668 58.0012 1.53711H9.15134C7.52544 1.53987 5.9681 1.88668 4.82154 2.50134C3.67499 3.11601 3.03306 3.94823 3.03676 4.81512V5.94347C3.03675 5.07786 3.68029 4.24755 4.82644 3.6345C5.9726 3.02144 7.52786 2.67565 9.15134 2.6729H57.9929C58.797 2.67266 59.5932 2.75741 60.3355 2.92225C61.0778 3.08709 61.7514 3.32875 62.3174 3.63325C63.4659 4.24905 64.1095 5.08249 64.1074 5.9509V4.8285C64.1129 4.39633 63.9584 3.96782 63.6527 3.56756C63.3469 3.16729 62.896 2.80314 62.3258 2.49599Z" fill="#30A49B"/>
</g>
</g>
<g style="mix-blend-mode:multiply" opacity="0.19">
<g style="mix-blend-mode:multiply" opacity="0.19">
<path d="M59.3943 7.71291H7.74498C6.02542 7.71015 4.37828 7.3434 3.16576 6.69329C1.95325 6.04318 1.27463 5.16293 1.27907 4.24609V10.4215C1.27463 11.3384 1.95325 12.2186 3.16576 12.8687C4.37828 13.5188 6.02542 13.8856 7.74498 13.8884H59.3943C60.2458 13.8872 61.0886 13.7966 61.8745 13.6217C62.6603 13.4468 63.3739 13.1911 63.9743 12.8692C64.5748 12.5472 65.0504 12.1654 65.3739 11.7454C65.6975 11.3254 65.8627 10.8756 65.8602 10.4215V4.24609C65.8627 4.70012 65.6975 5.14997 65.3739 5.56994C65.0504 5.98991 64.5748 6.37177 63.9743 6.69372C63.3739 7.01566 62.6603 7.27137 61.8745 7.44625C61.0886 7.62112 60.2458 7.71174 59.3943 7.71291Z" fill="#5C647B"/>
</g>
</g>
<g style="mix-blend-mode:multiply" opacity="0.42">
<g style="mix-blend-mode:multiply" opacity="0.42">
<path d="M59.3943 12.5781H7.74498C6.02542 12.5754 4.37828 12.2086 3.16576 11.5585C1.95325 10.9084 1.27463 10.0282 1.27907 9.11133V10.421C1.27463 11.3379 1.95325 12.2181 3.16576 12.8682C4.37828 13.5183 6.02542 13.8851 7.74498 13.8879H59.3943C60.2458 13.8867 61.0886 13.7961 61.8745 13.6212C62.6603 13.4463 63.3739 13.1906 63.9743 12.8687C64.5748 12.5467 65.0504 12.1649 65.3739 11.7449C65.6975 11.3249 65.8627 10.8751 65.8602 10.421V9.11133C65.8627 9.56535 65.6975 10.0152 65.3739 10.4352C65.0504 10.8551 64.5748 11.237 63.9743 11.559C63.3739 11.8809 62.6603 12.1366 61.8745 12.3115C61.0886 12.4864 60.2458 12.577 59.3943 12.5781Z" fill="#5C647B"/>
</g>
</g>
<g style="mix-blend-mode:screen" opacity="0.49">
<g style="mix-blend-mode:screen" opacity="0.49">
<path d="M36.6348 0.412109L14.5938 13.8869H8.57397L29.5555 0.412109H36.6348Z" fill="#30A49B"/>
</g>
</g>
<g style="mix-blend-mode:screen" opacity="0.49">
<g style="mix-blend-mode:screen" opacity="0.49">
<path d="M61.2657 0.534014L41.8707 13.8869H23.2482L46.1897 0.412109H59.5733C60.1451 0.412188 60.7144 0.453189 61.2657 0.534014Z" fill="#30A49B"/>
</g>
</g>
<path d="M131.758 3.87892V10.4201C131.76 10.874 131.595 11.3237 131.272 11.7436C130.948 12.1634 130.473 12.5452 129.873 12.8672C129.273 13.1891 128.559 13.4448 127.774 13.6198C126.988 13.7948 126.146 13.8855 125.295 13.8869H73.6424C71.9229 13.8841 70.2758 13.5174 69.0633 12.8673C67.8508 12.2172 67.1721 11.3369 67.1765 10.4201V3.87892C67.1721 2.96209 67.8508 2.08184 69.0633 1.43173C70.2758 0.781622 71.9229 0.414865 73.6424 0.412109H125.295C126.144 0.41274 126.985 0.502903 127.769 0.677414C128.552 0.851924 129.264 1.10734 129.862 1.42897C130.465 1.7506 130.943 2.13261 131.268 2.55306C131.594 2.9735 131.76 3.42409 131.758 3.87892Z" fill="#30A49B"/>
<g style="mix-blend-mode:screen" opacity="0.49">
<g style="mix-blend-mode:screen" opacity="0.49">
<path d="M128.047 2.49599C127.48 2.19175 126.807 1.95036 126.064 1.78578C125.322 1.6212 124.526 1.53668 123.722 1.53711H74.8723C73.2464 1.53987 71.689 1.88668 70.5425 2.50134C69.3959 3.11601 68.754 3.94823 68.7577 4.81512V5.94347C68.7577 5.07786 69.4012 4.24755 70.5474 3.6345C71.6935 3.02144 73.2488 2.67565 74.8723 2.6729H123.714C124.518 2.67266 125.314 2.75741 126.056 2.92225C126.799 3.08709 127.472 3.32875 128.038 3.63325C129.187 4.24905 129.83 5.08249 129.828 5.9509V4.8285C129.834 4.39633 129.679 3.96782 129.374 3.56756C129.068 3.16729 128.617 2.80314 128.047 2.49599Z" fill="#30A49B"/>
</g>
</g>
<g style="mix-blend-mode:multiply" opacity="0.19">
<g style="mix-blend-mode:multiply" opacity="0.19">
<path d="M125.115 7.71291H73.4659C71.7464 7.71015 70.0992 7.3434 68.8867 6.69329C67.6742 6.04318 66.9956 5.16293 67 4.24609V10.4215C66.9956 11.3384 67.6742 12.2186 68.8867 12.8687C70.0992 13.5188 71.7464 13.8856 73.4659 13.8884H125.115C125.967 13.8872 126.81 13.7966 127.595 13.6217C128.381 13.4468 129.095 13.1911 129.695 12.8692C130.296 12.5472 130.771 12.1654 131.095 11.7454C131.418 11.3254 131.584 10.8756 131.581 10.4215V4.24609C131.584 4.70012 131.418 5.14997 131.095 5.56994C130.771 5.98991 130.296 6.37177 129.695 6.69372C129.095 7.01566 128.381 7.27137 127.595 7.44625C126.81 7.62112 125.967 7.71174 125.115 7.71291Z" fill="#5C647B"/>
</g>
</g>
<g style="mix-blend-mode:multiply" opacity="0.42">
<g style="mix-blend-mode:multiply" opacity="0.42">
<path d="M125.115 12.5781H73.4659C71.7464 12.5754 70.0992 12.2086 68.8867 11.5585C67.6742 10.9084 66.9956 10.0282 67 9.11133V10.421C66.9956 11.3379 67.6742 12.2181 68.8867 12.8682C70.0992 13.5183 71.7464 13.8851 73.4659 13.8879H125.115C125.967 13.8867 126.81 13.7961 127.595 13.6212C128.381 13.4463 129.095 13.1906 129.695 12.8687C130.296 12.5467 130.771 12.1649 131.095 11.7449C131.418 11.3249 131.584 10.8751 131.581 10.421V9.11133C131.584 9.56535 131.418 10.0152 131.095 10.4352C130.771 10.8551 130.296 11.237 129.695 11.559C129.095 11.8809 128.381 12.1366 127.595 12.3115C126.81 12.4864 125.967 12.577 125.115 12.5781Z" fill="#5C647B"/>
</g>
</g>
<g style="mix-blend-mode:screen" opacity="0.49">
<g style="mix-blend-mode:screen" opacity="0.49">
<path d="M102.356 0.412109L80.3147 13.8869H74.2949L95.2764 0.412109H102.356Z" fill="#30A49B"/>
</g>
</g>
<g style="mix-blend-mode:screen" opacity="0.49">
<g style="mix-blend-mode:screen" opacity="0.49">
<path d="M126.987 0.534014L107.592 13.8869H88.9691L111.911 0.412109H125.294C125.866 0.412188 126.435 0.453189 126.987 0.534014Z" fill="#30A49B"/>
</g>
</g>
<path d="M197.758 3.87892V10.4201C197.76 10.874 197.595 11.3237 197.272 11.7436C196.948 12.1634 196.473 12.5452 195.873 12.8672C195.273 13.1891 194.559 13.4448 193.774 13.6198C192.988 13.7948 192.146 13.8855 191.295 13.8869H139.642C137.923 13.8841 136.276 13.5174 135.063 12.8673C133.851 12.2172 133.172 11.3369 133.177 10.4201V3.87892C133.172 2.96209 133.851 2.08184 135.063 1.43173C136.276 0.781622 137.923 0.414865 139.642 0.412109H191.295C192.144 0.41274 192.985 0.502903 193.769 0.677414C194.552 0.851924 195.264 1.10734 195.862 1.42897C196.465 1.7506 196.943 2.13261 197.268 2.55306C197.594 2.9735 197.76 3.42409 197.758 3.87892Z" fill="#30A49B"/>
<g style="mix-blend-mode:screen" opacity="0.49">
<g style="mix-blend-mode:screen" opacity="0.49">
<path d="M194.047 2.49599C193.48 2.19175 192.807 1.95036 192.064 1.78578C191.322 1.6212 190.526 1.53668 189.722 1.53711H140.872C139.246 1.53987 137.689 1.88668 136.542 2.50134C135.396 3.11601 134.754 3.94823 134.758 4.81512V5.94347C134.758 5.07786 135.401 4.24755 136.547 3.6345C137.694 3.02144 139.249 2.67565 140.872 2.6729H189.714C190.518 2.67266 191.314 2.75741 192.056 2.92225C192.799 3.08709 193.472 3.32875 194.038 3.63325C195.187 4.24905 195.83 5.08249 195.828 5.9509V4.8285C195.834 4.39633 195.679 3.96782 195.374 3.56756C195.068 3.16729 194.617 2.80314 194.047 2.49599Z" fill="#30A49B"/>
</g>
</g>
<g style="mix-blend-mode:multiply" opacity="0.19">
<g style="mix-blend-mode:multiply" opacity="0.19">
<path d="M191.115 7.71291H139.466C137.746 7.71015 136.099 7.3434 134.887 6.69329C133.674 6.04318 132.996 5.16293 133 4.24609V10.4215C132.996 11.3384 133.674 12.2186 134.887 12.8687C136.099 13.5188 137.746 13.8856 139.466 13.8884H191.115C191.967 13.8872 192.81 13.7966 193.595 13.6217C194.381 13.4468 195.095 13.1911 195.695 12.8692C196.296 12.5472 196.771 12.1654 197.095 11.7454C197.418 11.3254 197.584 10.8756 197.581 10.4215V4.24609C197.584 4.70012 197.418 5.14997 197.095 5.56994C196.771 5.98991 196.296 6.37177 195.695 6.69372C195.095 7.01566 194.381 7.27137 193.595 7.44625C192.81 7.62112 191.967 7.71174 191.115 7.71291Z" fill="#5C647B"/>
</g>
</g>
<g style="mix-blend-mode:multiply" opacity="0.42">
<g style="mix-blend-mode:multiply" opacity="0.42">
<path d="M191.115 12.5781H139.466C137.746 12.5754 136.099 12.2086 134.887 11.5585C133.674 10.9084 132.996 10.0282 133 9.11133V10.421C132.996 11.3379 133.674 12.2181 134.887 12.8682C136.099 13.5183 137.746 13.8851 139.466 13.8879H191.115C191.967 13.8867 192.81 13.7961 193.595 13.6212C194.381 13.4463 195.095 13.1906 195.695 12.8687C196.296 12.5467 196.771 12.1649 197.095 11.7449C197.418 11.3249 197.584 10.8751 197.581 10.421V9.11133C197.584 9.56535 197.418 10.0152 197.095 10.4352C196.771 10.8551 196.296 11.237 195.695 11.559C195.095 11.8809 194.381 12.1366 193.595 12.3115C192.81 12.4864 191.967 12.577 191.115 12.5781Z" fill="#5C647B"/>
</g>
</g>
<g style="mix-blend-mode:screen" opacity="0.49">
<g style="mix-blend-mode:screen" opacity="0.49">
<path d="M168.356 0.412109L146.315 13.8869H140.295L161.276 0.412109H168.356Z" fill="#30A49B"/>
</g>
</g>
<g style="mix-blend-mode:screen" opacity="0.49">
<g style="mix-blend-mode:screen" opacity="0.49">
<path d="M192.987 0.534014L173.592 13.8869H154.969L177.911 0.412109H191.294C191.866 0.412188 192.435 0.453189 192.987 0.534014Z" fill="#30A49B"/>
</g>
</g>
<path d="M263.758 3.87892V10.4201C263.76 10.874 263.595 11.3237 263.272 11.7436C262.948 12.1634 262.473 12.5452 261.873 12.8672C261.273 13.1891 260.559 13.4448 259.774 13.6198C258.988 13.7948 258.146 13.8855 257.295 13.8869H205.642C203.923 13.8841 202.276 13.5174 201.063 12.8673C199.851 12.2172 199.172 11.3369 199.177 10.4201V3.87892C199.172 2.96209 199.851 2.08184 201.063 1.43173C202.276 0.781622 203.923 0.414865 205.642 0.412109H257.295C258.144 0.41274 258.985 0.502903 259.769 0.677414C260.552 0.851924 261.264 1.10734 261.862 1.42897C262.465 1.7506 262.943 2.13261 263.268 2.55306C263.594 2.9735 263.76 3.42409 263.758 3.87892Z" fill="#30A49B"/>
<g style="mix-blend-mode:screen" opacity="0.49">
<g style="mix-blend-mode:screen" opacity="0.49">
<path d="M260.047 2.49599C259.48 2.19175 258.807 1.95036 258.064 1.78578C257.322 1.6212 256.526 1.53668 255.722 1.53711H206.872C205.246 1.53987 203.689 1.88668 202.542 2.50134C201.396 3.11601 200.754 3.94823 200.758 4.81512V5.94347C200.758 5.07786 201.401 4.24755 202.547 3.6345C203.694 3.02144 205.249 2.67565 206.872 2.6729H255.714C256.518 2.67266 257.314 2.75741 258.056 2.92225C258.799 3.08709 259.472 3.32875 260.038 3.63325C261.187 4.24905 261.83 5.08249 261.828 5.9509V4.8285C261.834 4.39633 261.679 3.96782 261.374 3.56756C261.068 3.16729 260.617 2.80314 260.047 2.49599Z" fill="#30A49B"/>
</g>
</g>
<g style="mix-blend-mode:multiply" opacity="0.19">
<g style="mix-blend-mode:multiply" opacity="0.19">
<path d="M257.115 7.71291H205.466C203.746 7.71015 202.099 7.3434 200.887 6.69329C199.674 6.04318 198.996 5.16293 199 4.24609V10.4215C198.996 11.3384 199.674 12.2186 200.887 12.8687C202.099 13.5188 203.746 13.8856 205.466 13.8884H257.115C257.967 13.8872 258.81 13.7966 259.595 13.6217C260.381 13.4468 261.095 13.1911 261.695 12.8692C262.296 12.5472 262.771 12.1654 263.095 11.7454C263.418 11.3254 263.584 10.8756 263.581 10.4215V4.24609C263.584 4.70012 263.418 5.14997 263.095 5.56994C262.771 5.98991 262.296 6.37177 261.695 6.69372C261.095 7.01566 260.381 7.27137 259.595 7.44625C258.81 7.62112 257.967 7.71174 257.115 7.71291Z" fill="#5C647B"/>
</g>
</g>
<g style="mix-blend-mode:multiply" opacity="0.42">
<g style="mix-blend-mode:multiply" opacity="0.42">
<path d="M257.115 12.5781H205.466C203.746 12.5754 202.099 12.2086 200.887 11.5585C199.674 10.9084 198.996 10.0282 199 9.11133V10.421C198.996 11.3379 199.674 12.2181 200.887 12.8682C202.099 13.5183 203.746 13.8851 205.466 13.8879H257.115C257.967 13.8867 258.81 13.7961 259.595 13.6212C260.381 13.4463 261.095 13.1906 261.695 12.8687C262.296 12.5467 262.771 12.1649 263.095 11.7449C263.418 11.3249 263.584 10.8751 263.581 10.421V9.11133C263.584 9.56535 263.418 10.0152 263.095 10.4352C262.771 10.8551 262.296 11.237 261.695 11.559C261.095 11.8809 260.381 12.1366 259.595 12.3115C258.81 12.4864 257.967 12.577 257.115 12.5781Z" fill="#5C647B"/>
</g>
</g>
<g style="mix-blend-mode:screen" opacity="0.49">
<g style="mix-blend-mode:screen" opacity="0.49">
<path d="M234.356 0.412109L212.315 13.8869H206.295L227.276 0.412109H234.356Z" fill="#30A49B"/>
</g>
</g>
<g style="mix-blend-mode:screen" opacity="0.49">
<g style="mix-blend-mode:screen" opacity="0.49">
<path d="M258.987 0.534014L239.592 13.8869H220.969L243.911 0.412109H257.294C257.866 0.412188 258.435 0.453189 258.987 0.534014Z" fill="#30A49B"/>
</g>
</g>
<path d="M329.758 3.87892V10.4201C329.76 10.874 329.595 11.3237 329.272 11.7436C328.948 12.1634 328.473 12.5452 327.873 12.8672C327.273 13.1891 326.559 13.4448 325.774 13.6198C324.988 13.7948 324.146 13.8855 323.295 13.8869H271.642C269.923 13.8841 268.276 13.5174 267.063 12.8673C265.851 12.2172 265.172 11.3369 265.177 10.4201V3.87892C265.172 2.96209 265.851 2.08184 267.063 1.43173C268.276 0.781622 269.923 0.414865 271.642 0.412109H323.295C324.144 0.41274 324.985 0.502903 325.769 0.677414C326.552 0.851924 327.264 1.10734 327.862 1.42897C328.465 1.7506 328.943 2.13261 329.268 2.55306C329.594 2.9735 329.76 3.42409 329.758 3.87892Z" fill="#30A49B"/>
<g style="mix-blend-mode:screen" opacity="0.49">
<g style="mix-blend-mode:screen" opacity="0.49">
<path d="M326.047 2.49599C325.48 2.19175 324.807 1.95036 324.064 1.78578C323.322 1.6212 322.526 1.53668 321.722 1.53711H272.872C271.246 1.53987 269.689 1.88668 268.542 2.50134C267.396 3.11601 266.754 3.94823 266.758 4.81512V5.94347C266.758 5.07786 267.401 4.24755 268.547 3.6345C269.694 3.02144 271.249 2.67565 272.872 2.6729H321.714C322.518 2.67266 323.314 2.75741 324.056 2.92225C324.799 3.08709 325.472 3.32875 326.038 3.63325C327.187 4.24905 327.83 5.08249 327.828 5.9509V4.8285C327.834 4.39633 327.679 3.96782 327.374 3.56756C327.068 3.16729 326.617 2.80314 326.047 2.49599Z" fill="#30A49B"/>
</g>
</g>
<g style="mix-blend-mode:multiply" opacity="0.19">
<g style="mix-blend-mode:multiply" opacity="0.19">
<path d="M323.115 7.71291H271.466C269.746 7.71015 268.099 7.3434 266.887 6.69329C265.674 6.04318 264.996 5.16293 265 4.24609V10.4215C264.996 11.3384 265.674 12.2186 266.887 12.8687C268.099 13.5188 269.746 13.8856 271.466 13.8884H323.115C323.967 13.8872 324.81 13.7966 325.595 13.6217C326.381 13.4468 327.095 13.1911 327.695 12.8692C328.296 12.5472 328.771 12.1654 329.095 11.7454C329.418 11.3254 329.584 10.8756 329.581 10.4215V4.24609C329.584 4.70012 329.418 5.14997 329.095 5.56994C328.771 5.98991 328.296 6.37177 327.695 6.69372C327.095 7.01566 326.381 7.27137 325.595 7.44625C324.81 7.62112 323.967 7.71174 323.115 7.71291Z" fill="#5C647B"/>
</g>
</g>
<g style="mix-blend-mode:multiply" opacity="0.42">
<g style="mix-blend-mode:multiply" opacity="0.42">
<path d="M323.115 12.5781H271.466C269.746 12.5754 268.099 12.2086 266.887 11.5585C265.674 10.9084 264.996 10.0282 265 9.11133V10.421C264.996 11.3379 265.674 12.2181 266.887 12.8682C268.099 13.5183 269.746 13.8851 271.466 13.8879H323.115C323.967 13.8867 324.81 13.7961 325.595 13.6212C326.381 13.4463 327.095 13.1906 327.695 12.8687C328.296 12.5467 328.771 12.1649 329.095 11.7449C329.418 11.3249 329.584 10.8751 329.581 10.421V9.11133C329.584 9.56535 329.418 10.0152 329.095 10.4352C328.771 10.8551 328.296 11.237 327.695 11.559C327.095 11.8809 326.381 12.1366 325.595 12.3115C324.81 12.4864 323.967 12.577 323.115 12.5781Z" fill="#5C647B"/>
</g>
</g>
<g style="mix-blend-mode:screen" opacity="0.49">
<g style="mix-blend-mode:screen" opacity="0.49">
<path d="M300.356 0.412109L278.315 13.8869H272.295L293.276 0.412109H300.356Z" fill="#30A49B"/>
</g>
</g>
<g style="mix-blend-mode:screen" opacity="0.49">
<g style="mix-blend-mode:screen" opacity="0.49">
<path d="M324.987 0.534014L305.592 13.8869H286.969L309.911 0.412109H323.294C323.866 0.412188 324.435 0.453189 324.987 0.534014Z" fill="#30A49B"/>
</g>
</g>
<path d="M322.546 14.4084H7.3777C5.4217 14.4072 3.54644 13.9924 2.16333 13.2549C0.780231 12.5175 0.00221393 11.5177 0 10.4748V3.93361C0.00221393 2.89071 0.780231 1.89087 2.16333 1.15343C3.54644 0.415993 5.4217 0.0011807 7.3777 2.80952e-07H322.546C323.515 -0.000194993 324.475 0.101404 325.37 0.299C326.266 0.496595 327.079 0.786315 327.765 1.1516C328.45 1.51689 328.994 1.95059 329.365 2.42794C329.736 2.90528 329.926 3.41692 329.926 3.93361V10.4748C329.924 11.5178 329.145 12.5176 327.761 13.255C326.378 13.9924 324.502 14.4072 322.546 14.4084ZM7.3777 0.94252C5.88683 0.9437 4.45764 1.25999 3.40344 1.82207C2.34924 2.38415 1.75602 3.14615 1.75381 3.94105V10.4822C1.75602 11.2771 2.34924 12.0391 3.40344 12.6012C4.45764 13.1632 5.88683 13.4795 7.3777 13.4807H322.546C324.037 13.4795 325.466 13.1632 326.52 12.6012C327.574 12.0391 328.168 11.2771 328.17 10.4822V3.94105C328.17 3.54722 328.025 3.15721 327.743 2.79333C327.46 2.42944 327.046 2.09881 326.523 1.82033C326.001 1.54185 325.381 1.32099 324.699 1.17037C324.016 1.01975 323.285 0.942325 322.546 0.94252H7.3777Z" fill="#7D7D7D"/>
</svg>
