<svg width="112" height="112" viewBox="0 0 112 112" fill="none" xmlns="http://www.w3.org/2000/svg">
<path d="M10.5 98V31.5H101.5V98L98 105L91 108.5H24.5L14 105L10.5 98Z" fill="#D2D2D2"/>
<path d="M56 7C60.6413 7 65.0925 8.84374 68.3744 12.1256C71.6563 15.4075 73.5 19.8587 73.5 24.5V28H38.5V24.5C38.5 19.8587 40.3437 15.4075 43.6256 12.1256C46.9075 8.84374 51.3587 7 56 7ZM80.5 28V24.5C80.5 18.0022 77.9188 11.7705 73.3241 7.17588C68.7295 2.58124 62.4978 0 56 0C49.5022 0 43.2705 2.58124 38.6759 7.17588C34.0812 11.7705 31.5 18.0022 31.5 24.5V28H7V98C7 101.713 8.475 105.274 11.1005 107.899C13.726 110.525 17.287 112 21 112H91C94.713 112 98.274 110.525 100.899 107.899C103.525 105.274 105 101.713 105 98V28H80.5ZM14 35H98V98C98 99.8565 97.2625 101.637 95.9497 102.95C94.637 104.262 92.8565 105 91 105H21C19.1435 105 17.363 104.262 16.0503 102.95C14.7375 101.637 14 99.8565 14 98V35Z" fill="#C9C6C6"/>
<path fill-rule="evenodd" clip-rule="evenodd" d="M59.0161 60.1202V61.9522C46.4364 65.7914 51.1124 77.0226 59.0161 72.3604V74.3172C47.731 82.5321 36.2199 65.4597 59.0161 60.1202ZM66.5015 56.2448V76.0577H61.459V61.3904V56.3909C61.459 55.5682 61.2977 54.7958 60.8997 54.0712C60.3458 53.0626 59.3014 52.2021 58.1776 51.9442C56.8499 51.6378 55.0776 51.6219 53.8514 52.2521L53.6412 52.3736C53.4274 52.5069 53.2337 52.6913 53.0725 52.8836C52.3944 53.693 52.2256 54.9646 52.2674 55.9892C52.2673 55.9897 52.2674 55.9901 52.2674 55.9906C52.5118 57.5228 51.3311 58.913 49.7779 58.913C48.3722 58.913 47.2372 57.7612 47.2569 56.3582C47.2569 56.3561 47.2569 56.3541 47.2571 56.352C47.2579 55.7559 47.4146 55.1331 47.6724 54.5973C48.3771 53.1331 49.8457 52.1 51.2825 51.4329C54.3584 50.005 58.4324 49.6775 61.4994 50.5317C64.5879 51.3917 66.5014 53.3523 66.5014 56.2448H66.5015Z" fill="#EE3E80"/>
<path fill-rule="evenodd" clip-rule="evenodd" d="M64.1178 44.6318C65.5147 44.6318 66.6476 45.7651 66.6476 47.1625C66.6476 48.5599 65.5147 49.6932 64.1178 49.6932C62.7208 49.6932 61.5879 48.5599 61.5879 47.1625C61.5879 45.7651 62.7208 44.6318 64.1178 44.6318Z" fill="#EE3E80"/>
<path d="M50.5474 88.2368H49.383V87.4361C49.2437 87.542 49.11 87.6497 48.9763 87.7575C48.8444 87.8671 48.7014 87.9656 48.5472 88.0566C48.3931 88.1477 48.2223 88.2219 48.0365 88.2777C47.8489 88.3334 47.6317 88.3613 47.3846 88.3613C47.1562 88.3613 46.95 88.3241 46.7643 88.2498C46.5804 88.1755 46.4227 88.0734 46.2926 87.9433C46.1607 87.8114 46.0623 87.6572 45.9918 87.4807C45.923 87.3024 45.8896 87.111 45.8896 86.903C45.8896 86.6523 45.9398 86.4274 46.0382 86.2249C46.1384 86.0243 46.2741 85.8441 46.4468 85.6843C46.6194 85.5246 46.8201 85.3833 47.0503 85.2589C47.2807 85.1363 47.5258 85.0249 47.782 84.9282C48.0402 84.8298 48.3057 84.7425 48.5807 84.6663C48.8535 84.5902 49.1211 84.5196 49.3829 84.4545V84.0905C49.3829 83.8247 49.355 83.6 49.3031 83.4179C49.251 83.234 49.175 83.0872 49.0783 82.974C48.9799 82.8606 48.8611 82.7807 48.7217 82.7325C48.5807 82.6823 48.4246 82.6581 48.2501 82.6581C48.055 82.6581 47.8953 82.6841 47.7709 82.7343C47.6483 82.7844 47.5517 82.8532 47.4812 82.9349C47.4106 83.0186 47.3623 83.1151 47.3363 83.2209C47.3103 83.3287 47.2991 83.4365 47.2991 83.5461C47.2991 83.6464 47.2898 83.7448 47.2731 83.8396C47.2583 83.9344 47.2268 84.0161 47.184 84.0867C47.1413 84.1573 47.0819 84.2149 47.0077 84.2576C46.9333 84.3021 46.8386 84.3244 46.7216 84.3244C46.6306 84.3244 46.5488 84.306 46.4746 84.2725C46.4003 84.2371 46.3353 84.1889 46.2814 84.1275C46.2257 84.0662 46.1849 83.9937 46.1551 83.9102C46.1273 83.8266 46.1124 83.7355 46.1124 83.6371C46.1124 83.4457 46.1756 83.2655 46.3019 83.0984C46.43 82.933 46.6009 82.7881 46.8144 82.6655C47.028 82.5448 47.2786 82.4481 47.5647 82.3775C47.8507 82.307 48.1534 82.2716 48.4673 82.2716C48.8517 82.2716 49.1767 82.3087 49.4423 82.3831C49.706 82.4574 49.9214 82.5614 50.0849 82.6971C50.2465 82.8309 50.3652 82.9943 50.4377 83.1856C50.5102 83.3788 50.5472 83.5907 50.5472 83.8229V88.2368L50.5474 88.2368ZM49.383 84.8297C49.2158 84.8836 49.0431 84.9468 48.8629 85.0156C48.6829 85.0842 48.5064 85.1604 48.3355 85.2459C48.1628 85.3313 47.9994 85.4242 47.8434 85.5246C47.6873 85.623 47.5499 85.7289 47.4311 85.8423C47.3141 85.9537 47.2213 86.0745 47.1507 86.2009C47.082 86.329 47.0485 86.4608 47.0485 86.5984C47.0485 86.7395 47.0745 86.8752 47.1265 87.0034C47.1804 87.1334 47.2492 87.2449 47.3364 87.3414C47.4237 87.4381 47.524 87.5143 47.639 87.5699C47.7524 87.6257 47.8712 87.6554 47.9956 87.6554C48.1256 87.6554 48.2501 87.6368 48.367 87.6034C48.4859 87.5681 48.5992 87.5216 48.7106 87.4641C48.8202 87.4065 48.9316 87.3377 49.043 87.2597C49.1527 87.1817 49.2659 87.0999 49.3829 87.0126V84.8298L49.383 84.8297ZM52.4691 82.3924H53.6224V83.4959C53.7357 83.3324 53.8564 83.1764 53.9883 83.0278C54.1183 82.8792 54.2538 82.7491 54.395 82.6358C54.5361 82.5243 54.6828 82.4352 54.8333 82.3701C54.9837 82.3051 55.1379 82.2717 55.2939 82.2717C55.4202 82.2717 55.5391 82.2903 55.6468 82.3292C55.7563 82.3664 55.8511 82.4184 55.9328 82.4816C56.0144 82.5448 56.0795 82.619 56.1258 82.7045C56.1723 82.79 56.1965 82.8792 56.1965 82.9739C56.1965 83.1633 56.137 83.3046 56.02 83.4012C55.9012 83.4977 55.7377 83.5461 55.5279 83.5461C55.3961 83.5461 55.292 83.5312 55.2141 83.5052C55.1361 83.4773 55.0655 83.4457 55.0023 83.4122C54.9392 83.3769 54.8743 83.3472 54.8092 83.3194C54.7442 83.2916 54.6624 83.2785 54.564 83.2785C54.4879 83.2785 54.4117 83.3008 54.3338 83.3472C54.2558 83.3918 54.1777 83.455 54.0998 83.5367C54.0217 83.6184 53.9419 83.7151 53.862 83.8246C53.7822 83.9361 53.7023 84.0569 53.6225 84.1869V88.2368H52.4692V82.3924L52.4691 82.3924ZM60.5361 87.4919C60.3801 87.7594 60.1739 87.9711 59.9158 88.1272C59.6577 88.2833 59.3401 88.3612 58.963 88.3612C58.7681 88.3612 58.5991 88.3296 58.4542 88.2647C58.3112 88.1978 58.1924 88.1067 58.0996 87.9859C58.0048 87.8671 57.9342 87.7241 57.8897 87.5568C57.8433 87.3896 57.821 87.2038 57.821 87.0013V82.8809H56.8088V82.593C57.1356 82.593 57.403 82.5335 57.6148 82.4164C57.8246 82.2976 57.9973 82.1378 58.1311 81.9372C58.2649 81.7347 58.3707 81.5025 58.4469 81.2368C58.523 80.973 58.5899 80.6906 58.6474 80.3934H58.9799V82.3923H60.291V82.8809H58.9799V87.0013C58.9799 87.0886 58.9966 87.1704 59.0281 87.2466C59.0615 87.3228 59.1061 87.3877 59.1618 87.4453C59.2194 87.501 59.2863 87.5457 59.3642 87.579C59.4423 87.6106 59.524 87.6273 59.6113 87.6273C59.7413 87.6273 59.8602 87.5957 59.9678 87.5326C60.0738 87.4675 60.1685 87.3896 60.2483 87.2948L60.5361 87.4918L60.5361 87.4919ZM62.7697 83.4588C63.1227 83.0631 63.4885 82.7658 63.8692 82.5689C64.2499 82.3702 64.638 82.2717 65.0337 82.2717C65.236 82.2717 65.4274 82.318 65.6075 82.411C65.7876 82.5039 65.9436 82.6284 66.0756 82.7881C66.2074 82.9478 66.3114 83.1355 66.3875 83.3529C66.4637 83.5684 66.5026 83.7968 66.5026 84.0402V88.2368H65.3438V84.2371C65.3438 83.8526 65.2565 83.5591 65.0819 83.3602C64.9092 83.1615 64.6845 83.0611 64.4078 83.0611C64.2852 83.0611 64.1534 83.0815 64.0159 83.1206C63.8784 83.1615 63.7393 83.2171 63.598 83.2915C63.455 83.3658 63.3157 83.455 63.1764 83.559C63.0354 83.663 62.9016 83.7782 62.7697 83.9045V88.2367H61.6109V79.7302L62.4391 79.3977H62.7697V83.4587L62.7697 83.4588Z" fill="#EE3E80"/>
</svg>
