<svg width="227" height="221" viewBox="0 0 227 221" fill="none" xmlns="http://www.w3.org/2000/svg">
<path d="M29.9339 149.99C29.5458 150.892 28.2251 150.753 28.0343 149.789L21.2623 115.596C21.1314 114.935 21.6783 114.336 22.3484 114.407L42.8906 116.578C43.5606 116.649 43.9703 117.349 43.7042 117.968L29.9339 149.99Z" fill="#FF8C00"/>
<path d="M24.9422 115.844C24.7529 115.894 24.5907 116.118 24.5907 116.317C24.5907 116.517 24.3203 116.666 23.9147 116.666C23.1035 116.666 22.4005 117.737 22.9143 118.21C23.0765 118.36 23.1576 118.783 23.0765 119.157C22.8872 119.954 23.5091 120.526 24.3473 120.327C24.6988 120.228 25.2126 120.377 25.6722 120.701C26.2941 121.124 26.5104 121.149 27.0242 120.9C27.4298 120.701 27.565 120.452 27.4839 120.128C27.4027 119.829 27.4839 119.655 27.7002 119.655C27.9165 119.655 28.268 119.406 28.4843 119.107C28.8628 118.609 28.8628 118.509 28.4032 118.036C28.1058 117.762 27.8354 117.314 27.7813 117.04C27.7272 116.691 27.4839 116.542 27.0242 116.566C26.6456 116.591 26.186 116.392 25.9967 116.143C25.6182 115.645 25.51 115.62 24.9422 115.844ZM25.8615 116.566C26.0778 117.089 25.51 117.612 25.1044 117.239C24.7529 116.915 24.9692 116.168 25.4018 116.168C25.5641 116.168 25.7534 116.342 25.8615 116.566ZM24.4555 117.314C24.9963 117.837 24.8611 118.26 24.104 118.36C23.455 118.459 23.0765 117.911 23.3469 117.289C23.5362 116.816 23.9147 116.816 24.4555 117.314ZM27.565 117.289C27.565 117.488 27.4568 117.662 27.3216 117.662C27.1864 117.662 26.889 117.737 26.6456 117.812C26.3753 117.911 26.213 117.837 26.213 117.588C26.213 117.214 26.5916 116.965 27.2405 116.94C27.4027 116.915 27.565 117.089 27.565 117.289ZM26.0508 118.061C26.2401 118.534 26.0237 118.908 25.537 118.908C24.9692 118.908 24.7799 118.434 25.1315 118.036C25.5641 117.563 25.8345 117.563 26.0508 118.061ZM27.9435 118.061C28.5384 118.26 28.4843 118.833 27.8624 119.157C26.8079 119.655 25.9426 118.733 26.9701 118.185C27.5379 117.862 27.4298 117.886 27.9435 118.061ZM24.807 119.306C24.8611 119.68 24.6988 119.879 24.3203 119.978C23.6984 120.128 23.3469 119.655 23.6173 119.007C23.8336 118.459 24.6988 118.683 24.807 119.306ZM27.1053 120.153C27.2405 120.601 27.1323 120.676 26.5645 120.601C25.6722 120.501 25.1044 119.729 25.6452 119.406C26.186 119.107 26.916 119.505 27.1053 120.153Z" fill="#E81224"/>
<path d="M32.9686 129.221C32.7793 129.271 32.617 129.495 32.617 129.694C32.617 129.894 32.3467 130.043 31.9411 130.043C31.1299 130.043 30.4269 131.114 30.9406 131.587C31.1029 131.737 31.184 132.16 31.1029 132.534C30.9136 133.33 31.5355 133.903 32.3737 133.704C32.7252 133.604 33.2389 133.754 33.6986 134.078C34.3205 134.501 34.5368 134.526 35.0506 134.277C35.4561 134.078 35.5913 133.829 35.5102 133.505C35.4291 133.206 35.5102 133.032 35.7265 133.032C35.9428 133.032 36.2944 132.783 36.5107 132.484C36.8892 131.986 36.8892 131.886 36.4295 131.413C36.1321 131.139 35.8617 130.691 35.8077 130.417C35.7536 130.068 35.5102 129.918 35.0506 129.943C34.672 129.968 34.2123 129.769 34.0231 129.52C33.6445 129.022 33.5364 128.997 32.9686 129.221ZM33.8879 129.943C34.1042 130.466 33.5364 130.989 33.1308 130.616C32.7793 130.292 32.9956 129.545 33.4282 129.545C33.5904 129.545 33.7797 129.719 33.8879 129.943ZM32.4818 130.691C33.0226 131.214 32.8874 131.637 32.1303 131.737C31.4814 131.836 31.1029 131.288 31.3732 130.666C31.5625 130.192 31.9411 130.192 32.4818 130.691ZM35.5913 130.666C35.5913 130.865 35.4832 131.039 35.348 131.039C35.2128 131.039 34.9154 131.114 34.672 131.189C34.4016 131.288 34.2394 131.214 34.2394 130.964C34.2394 130.591 34.6179 130.342 35.2669 130.317C35.4291 130.292 35.5913 130.466 35.5913 130.666ZM34.0772 131.438C34.2664 131.911 34.0501 132.284 33.5634 132.284C32.9956 132.284 32.8063 131.811 33.1578 131.413C33.5904 130.94 33.8608 130.94 34.0772 131.438ZM35.9699 131.438C36.5647 131.637 36.5107 132.21 35.8888 132.534C34.8342 133.032 33.969 132.11 34.9965 131.562C35.5643 131.238 35.4561 131.263 35.9699 131.438ZM32.8334 132.683C32.8874 133.057 32.7252 133.256 32.3467 133.355C31.7248 133.505 31.3732 133.032 31.6436 132.384C31.8599 131.836 32.7252 132.06 32.8334 132.683ZM35.1317 133.53C35.2669 133.978 35.1587 134.053 34.5909 133.978C33.6986 133.878 33.1308 133.106 33.6716 132.783C34.2123 132.484 34.9424 132.882 35.1317 133.53Z" fill="#E81224"/>
<path d="M60.086 152.051C59.7707 152.981 58.4431 152.947 58.1765 152.001L48.7166 118.452C48.5337 117.804 49.0315 117.164 49.705 117.181L70.3547 117.718C71.0283 117.735 71.4921 118.4 71.2758 119.039L60.086 152.051Z" fill="#E81224"/>
<path d="M54.3709 119.189C54.1816 119.238 54.0194 119.462 54.0194 119.662C54.0194 119.861 53.749 120.01 53.3434 120.01C52.5322 120.01 51.8292 121.081 52.343 121.554C52.5052 121.704 52.5863 122.127 52.5052 122.501C52.3159 123.298 52.9378 123.871 53.776 123.671C54.1275 123.572 54.6413 123.721 55.1009 124.045C55.7228 124.468 55.9392 124.493 56.4529 124.244C56.8585 124.045 56.9937 123.796 56.9126 123.472C56.8314 123.173 56.9126 122.999 57.1289 122.999C57.3452 122.999 57.6967 122.75 57.913 122.451C58.2916 121.953 58.2916 121.853 57.8319 121.38C57.5345 121.106 57.2641 120.658 57.21 120.384C57.1559 120.035 56.9126 119.886 56.4529 119.911C56.0744 119.936 55.6147 119.736 55.4254 119.487C55.0469 118.989 54.9387 118.964 54.3709 119.189ZM55.2902 119.911C55.5065 120.434 54.9387 120.957 54.5331 120.583C54.1816 120.259 54.3979 119.512 54.8306 119.512C54.9928 119.512 55.1821 119.687 55.2902 119.911ZM53.8842 120.658C54.425 121.181 54.2898 121.604 53.5327 121.704C52.8837 121.804 52.5052 121.256 52.7756 120.633C52.9649 120.16 53.3434 120.16 53.8842 120.658ZM56.9937 120.633C56.9937 120.832 56.8855 121.007 56.7503 121.007C56.6151 121.007 56.3177 121.081 56.0744 121.156C55.804 121.256 55.6417 121.181 55.6417 120.932C55.6417 120.558 56.0203 120.309 56.6692 120.284C56.8314 120.259 56.9937 120.434 56.9937 120.633ZM55.4795 121.405C55.6688 121.878 55.4525 122.252 54.9658 122.252C54.3979 122.252 54.2087 121.779 54.5602 121.38C54.9928 120.907 55.2632 120.907 55.4795 121.405ZM57.3722 121.405C57.9671 121.604 57.913 122.177 57.2911 122.501C56.2366 122.999 55.3713 122.078 56.3988 121.53C56.9666 121.206 56.8585 121.231 57.3722 121.405ZM54.2357 122.65C54.2898 123.024 54.1275 123.223 53.749 123.323C53.1271 123.472 52.7756 122.999 53.046 122.351C53.2623 121.804 54.1275 122.028 54.2357 122.65ZM56.534 123.497C56.6692 123.945 56.5611 124.02 55.9932 123.945C55.1009 123.846 54.5331 123.074 55.0739 122.75C55.6147 122.451 56.3447 122.85 56.534 123.497Z" fill="#FF8C00"/>
<path d="M61.0594 131.896C60.8701 131.946 60.7079 132.17 60.7079 132.37C60.7079 132.569 60.4375 132.718 60.0319 132.718C59.2207 132.718 58.5177 133.789 59.0314 134.262C59.1937 134.412 59.2748 134.835 59.1937 135.209C59.0044 136.006 59.6263 136.579 60.4645 136.379C60.816 136.28 61.3298 136.429 61.7894 136.753C62.4113 137.176 62.6276 137.201 63.1414 136.952C63.547 136.753 63.6822 136.504 63.601 136.18C63.5199 135.881 63.601 135.707 63.8174 135.707C64.0337 135.707 64.3852 135.458 64.6015 135.159C64.98 134.661 64.98 134.561 64.5204 134.088C64.2229 133.814 63.9525 133.366 63.8985 133.092C63.8444 132.743 63.601 132.594 63.1414 132.619C62.7628 132.644 62.3032 132.444 62.1139 132.195C61.7353 131.697 61.6272 131.672 61.0594 131.896ZM61.9787 132.619C62.195 133.142 61.6272 133.665 61.2216 133.291C60.8701 132.967 61.0864 132.22 61.519 132.22C61.6813 132.22 61.8705 132.394 61.9787 132.619ZM60.5727 133.366C61.1134 133.889 60.9783 134.312 60.2212 134.412C59.5722 134.511 59.1937 133.964 59.4641 133.341C59.6533 132.868 60.0319 132.868 60.5727 133.366ZM63.6822 133.341C63.6822 133.54 63.574 133.714 63.4388 133.714C63.3036 133.714 63.0062 133.789 62.7628 133.864C62.4924 133.964 62.3302 133.889 62.3302 133.64C62.3302 133.266 62.7088 133.017 63.3577 132.992C63.5199 132.967 63.6822 133.142 63.6822 133.341ZM62.168 134.113C62.3572 134.586 62.1409 134.96 61.6542 134.96C61.0864 134.96 60.8971 134.487 61.2486 134.088C61.6813 133.615 61.9517 133.615 62.168 134.113ZM64.0607 134.113C64.6556 134.312 64.6015 134.885 63.9796 135.209C62.9251 135.707 62.0598 134.785 63.0873 134.237C63.6551 133.914 63.547 133.939 64.0607 134.113ZM60.9242 135.358C60.9783 135.732 60.816 135.931 60.4375 136.031C59.8156 136.18 59.4641 135.707 59.7345 135.059C59.9508 134.511 60.816 134.736 60.9242 135.358ZM63.2225 136.205C63.3577 136.653 63.2495 136.728 62.6817 136.653C61.7894 136.554 61.2216 135.782 61.7624 135.458C62.3032 135.159 63.0332 135.557 63.2225 136.205Z" fill="#FF8C00"/>
<path d="M89.8819 149.962C89.6975 150.927 88.3777 151.076 87.9837 150.176L74.0025 118.245C73.7322 117.628 74.1373 116.926 74.8068 116.85L95.3343 114.544C96.0039 114.468 96.5547 115.063 96.4282 115.725L89.8819 149.962Z" fill="#FF8C00"/>
<path d="M119.899 143.633C119.81 144.612 118.512 144.89 118.031 144.033L100.967 113.638C100.637 113.05 100.971 112.312 101.63 112.171L121.829 107.85C122.488 107.709 123.095 108.246 123.034 108.917L119.899 143.633Z" fill="#E81224"/>
<path d="M150.577 134.467C150.654 135.446 149.42 135.937 148.803 135.173L126.895 108.061C126.471 107.537 126.677 106.752 127.303 106.503L146.495 98.8642C147.121 98.615 147.809 99.0436 147.862 99.7154L150.577 134.467Z" fill="#FF8C00"/>
<path d="M179.086 120.172C179.272 121.137 178.1 121.762 177.401 121.072L152.608 96.57C152.129 96.0964 152.246 95.294 152.84 94.9766L171.061 85.2461C171.656 84.9287 172.387 85.278 172.514 85.9396L179.086 120.172Z" fill="#E81224"/>
<path d="M205.444 101.104C205.794 102.022 204.748 102.841 203.941 102.282L175.282 82.44C174.728 82.0564 174.704 81.246 175.234 80.8305L191.497 68.0938C192.027 67.6784 192.809 67.8957 193.048 68.5255L205.444 101.104Z" fill="#FF8C00"/>
<path d="M79.7879 119.857C79.5986 119.907 79.4364 120.131 79.4364 120.331C79.4364 120.53 79.166 120.679 78.7604 120.679C77.9492 120.679 77.2462 121.75 77.76 122.223C77.9222 122.373 78.0033 122.796 77.9222 123.17C77.7329 123.967 78.3548 124.539 79.193 124.34C79.5445 124.241 80.0583 124.39 80.5179 124.714C81.1398 125.137 81.3562 125.162 81.8699 124.913C82.2755 124.714 82.4107 124.465 82.3296 124.141C82.2484 123.842 82.3296 123.668 82.5459 123.668C82.7622 123.668 83.1137 123.419 83.33 123.12C83.7085 122.622 83.7085 122.522 83.2489 122.049C82.9515 121.775 82.6811 121.327 82.627 121.053C82.5729 120.704 82.3296 120.555 81.8699 120.58C81.4913 120.604 81.0317 120.405 80.8424 120.156C80.4639 119.658 80.3557 119.633 79.7879 119.857ZM80.7072 120.58C80.9235 121.103 80.3557 121.626 79.9501 121.252C79.5986 120.928 79.8149 120.181 80.2476 120.181C80.4098 120.181 80.5991 120.355 80.7072 120.58ZM79.3012 121.327C79.842 121.85 79.7068 122.273 78.9497 122.373C78.3007 122.472 77.9222 121.924 78.1926 121.302C78.3819 120.829 78.7604 120.829 79.3012 121.327ZM82.4107 121.302C82.4107 121.501 82.3025 121.675 82.1673 121.675C82.0321 121.675 81.7347 121.75 81.4913 121.825C81.221 121.924 81.0587 121.85 81.0587 121.601C81.0587 121.227 81.4373 120.978 82.0862 120.953C82.2484 120.928 82.4107 121.103 82.4107 121.302ZM80.8965 122.074C81.0858 122.547 80.8694 122.921 80.3827 122.921C79.8149 122.921 79.6257 122.447 79.9772 122.049C80.4098 121.576 80.6802 121.576 80.8965 122.074ZM82.7892 122.074C83.3841 122.273 83.33 122.846 82.7081 123.17C81.6536 123.668 80.7883 122.746 81.8158 122.198C82.3836 121.875 82.2755 121.9 82.7892 122.074ZM79.6527 123.319C79.7068 123.693 79.5445 123.892 79.166 123.992C78.5441 124.141 78.1926 123.668 78.463 123.02C78.6793 122.472 79.5445 122.697 79.6527 123.319ZM81.951 124.166C82.0862 124.614 81.978 124.689 81.4102 124.614C80.5179 124.515 79.9501 123.743 80.4909 123.419C81.0317 123.12 81.7617 123.518 81.951 124.166Z" fill="#E81224"/>
<path d="M133.249 110.18C133.081 110.279 132.985 110.539 133.039 110.731C133.092 110.922 132.872 111.139 132.482 111.249C131.701 111.467 131.313 112.688 131.935 113.005C132.131 113.106 132.324 113.491 132.346 113.873C132.379 114.691 133.133 115.075 133.886 114.657C134.198 114.466 134.733 114.472 135.263 114.66C135.976 114.899 136.191 114.865 136.618 114.487C136.955 114.185 137.018 113.909 136.852 113.619C136.694 113.353 136.725 113.164 136.933 113.105C137.141 113.047 137.413 112.712 137.54 112.366C137.77 111.784 137.744 111.688 137.173 111.357C136.813 111.173 136.432 110.814 136.306 110.565C136.16 110.244 135.885 110.166 135.449 110.314C135.091 110.44 134.595 110.372 134.345 110.183C133.847 109.806 133.736 109.811 133.249 110.18ZM134.329 110.628C134.679 111.073 134.273 111.73 133.782 111.479C133.356 111.262 133.363 110.485 133.779 110.368C133.936 110.324 134.165 110.441 134.329 110.628ZM133.177 111.726C133.839 112.084 133.823 112.528 133.121 112.828C132.523 113.099 132.011 112.674 132.103 112.001C132.158 111.495 132.522 111.393 133.177 111.726ZM136.165 110.863C136.218 111.055 136.161 111.252 136.031 111.289C135.901 111.325 135.635 111.477 135.42 111.615C135.187 111.784 135.011 111.756 134.943 111.516C134.843 111.156 135.14 110.814 135.758 110.615C135.908 110.547 136.111 110.672 136.165 110.863ZM134.915 112.015C135.225 112.42 135.117 112.838 134.649 112.969C134.102 113.123 133.792 112.718 134.023 112.239C134.312 111.667 134.572 111.594 134.915 112.015ZM136.737 111.505C137.364 111.536 137.466 112.102 136.955 112.582C136.074 113.346 134.992 112.692 135.834 111.887C136.293 111.422 136.196 111.475 136.737 111.505ZM134.053 113.55C134.206 113.895 134.104 114.131 133.766 114.329C133.207 114.64 132.741 114.28 132.827 113.583C132.887 112.997 133.781 112.98 134.053 113.55ZM136.495 113.745C136.746 114.141 136.662 114.242 136.095 114.323C135.209 114.468 134.454 113.877 134.887 113.42C135.327 112.986 136.138 113.173 136.495 113.745Z" fill="#E81224"/>
<path d="M180.45 81.2505C180.325 81.401 180.323 81.6777 180.439 81.8398C180.555 82.002 180.422 82.2807 180.092 82.5164C179.431 82.9877 179.481 84.2677 180.174 84.3544C180.393 84.3818 180.705 84.6792 180.856 85.0304C181.165 85.789 182.004 85.8939 182.571 85.2448C182.799 84.9594 183.304 84.7826 183.866 84.779C184.618 84.7623 184.809 84.6569 185.082 84.1557C185.297 83.7579 185.262 83.4766 185.008 83.2603C184.768 83.0641 184.733 82.8751 184.909 82.7494C185.085 82.6238 185.226 82.2168 185.229 81.8479C185.248 81.2226 185.19 81.1415 184.541 81.0234C184.139 80.9733 183.659 80.7655 183.456 80.5739C183.209 80.3216 182.924 80.3413 182.565 80.6287C182.271 80.8689 181.781 80.9738 181.482 80.881C180.885 80.6956 180.782 80.7381 180.45 81.2505ZM181.618 81.3042C182.098 81.6042 181.94 82.3598 181.393 82.2914C180.918 82.2321 180.66 81.4983 181.013 81.2469C181.145 81.1527 181.4 81.1846 181.618 81.3042ZM180.908 82.7292C181.652 82.8407 181.788 83.2638 181.23 83.7848C180.759 84.2429 180.133 84.0169 179.991 83.353C179.87 82.8579 180.178 82.638 180.908 82.7292ZM183.424 80.9023C183.54 81.0645 183.553 81.2692 183.443 81.3478C183.333 81.4263 183.135 81.6599 182.98 81.8621C182.818 82.1003 182.642 82.1337 182.498 81.931C182.281 81.627 182.444 81.2044 182.958 80.807C183.075 80.6925 183.309 80.7402 183.424 80.9023ZM182.64 82.4104C183.069 82.6856 183.11 83.1153 182.714 83.3981C182.252 83.728 181.823 83.4529 181.878 82.9243C181.955 82.2878 182.175 82.1307 182.64 82.4104ZM184.181 81.3108C184.781 81.1273 185.07 81.6249 184.752 82.2498C184.183 83.2679 182.943 83.0206 183.461 81.9777C183.735 81.3842 183.662 81.4673 184.181 81.3108ZM182.352 84.1466C182.613 84.4192 182.596 84.6757 182.346 84.9767C181.927 85.4596 181.366 85.2787 181.21 84.5946C181.067 84.023 181.902 83.7027 182.352 84.1466ZM184.714 83.5005C185.085 83.7868 185.04 83.9104 184.535 84.1795C183.75 84.6169 182.84 84.3184 183.092 83.7407C183.358 83.1832 184.184 83.0834 184.714 83.5005Z" fill="#E81224"/>
<path d="M87.8133 133.234C87.624 133.284 87.4618 133.508 87.4618 133.707C87.4618 133.906 87.1914 134.056 86.7858 134.056C85.9746 134.056 85.2716 135.127 85.7853 135.6C85.9476 135.749 86.0287 136.173 85.9476 136.546C85.7583 137.343 86.3802 137.916 87.2184 137.717C87.5699 137.617 88.0837 137.767 88.5433 138.091C89.1652 138.514 89.3815 138.539 89.8953 138.29C90.3009 138.091 90.4361 137.841 90.3549 137.518C90.2738 137.219 90.3549 137.044 90.5713 137.044C90.7876 137.044 91.1391 136.795 91.3554 136.497C91.7339 135.998 91.7339 135.899 91.2743 135.426C90.9768 135.152 90.7065 134.703 90.6524 134.429C90.5983 134.081 90.3549 133.931 89.8953 133.956C89.5167 133.981 89.0571 133.782 88.8678 133.533C88.4893 133.035 88.3811 133.01 87.8133 133.234ZM88.7326 133.956C88.9489 134.479 88.3811 135.002 87.9755 134.629C87.624 134.305 87.8403 133.558 88.2729 133.558C88.4352 133.558 88.6244 133.732 88.7326 133.956ZM87.3266 134.703C87.8674 135.226 87.7322 135.65 86.9751 135.749C86.3261 135.849 85.9476 135.301 86.218 134.679C86.4072 134.205 86.7858 134.205 87.3266 134.703ZM90.4361 134.679C90.4361 134.878 90.3279 135.052 90.1927 135.052C90.0575 135.052 89.7601 135.127 89.5167 135.202C89.2463 135.301 89.0841 135.226 89.0841 134.977C89.0841 134.604 89.4627 134.355 90.1116 134.33C90.2738 134.305 90.4361 134.479 90.4361 134.679ZM88.9219 135.451C89.1112 135.924 88.8948 136.297 88.4081 136.297C87.8403 136.297 87.651 135.824 88.0026 135.426C88.4352 134.952 88.7056 134.952 88.9219 135.451ZM90.8146 135.451C91.4095 135.65 91.3554 136.223 90.7335 136.546C89.679 137.044 88.8137 136.123 89.8412 135.575C90.409 135.251 90.3009 135.276 90.8146 135.451ZM87.6781 136.696C87.7322 137.069 87.5699 137.269 87.1914 137.368C86.5695 137.518 86.218 137.044 86.4884 136.397C86.7047 135.849 87.5699 136.073 87.6781 136.696ZM89.9764 137.543C90.1116 137.991 90.0034 138.066 89.4356 137.991C88.5433 137.891 87.9755 137.119 88.5163 136.795C89.0571 136.497 89.7871 136.895 89.9764 137.543Z" fill="#E81224"/>
<path d="M144.586 120.896C144.417 120.995 144.322 121.255 144.375 121.446C144.429 121.638 144.209 121.855 143.819 121.964C143.038 122.183 142.65 123.404 143.272 123.721C143.468 123.821 143.661 124.207 143.683 124.589C143.716 125.407 144.47 125.791 145.223 125.373C145.535 125.182 146.07 125.188 146.599 125.375C147.313 125.615 147.528 125.581 147.955 125.202C148.292 124.901 148.355 124.625 148.189 124.335C148.031 124.069 148.062 123.879 148.27 123.821C148.478 123.763 148.75 123.428 148.877 123.082C149.107 122.5 149.081 122.404 148.51 122.073C148.15 121.889 147.769 121.53 147.643 121.281C147.497 120.96 147.222 120.882 146.786 121.03C146.428 121.156 145.932 121.088 145.682 120.899C145.183 120.522 145.073 120.527 144.586 120.896ZM145.666 121.343C146.016 121.789 145.61 122.445 145.119 122.195C144.693 121.978 144.7 121.2 145.116 121.084C145.272 121.04 145.502 121.157 145.666 121.343ZM144.514 122.442C145.176 122.8 145.16 123.244 144.458 123.544C143.86 123.815 143.347 123.39 143.44 122.717C143.494 122.21 143.859 122.108 144.514 122.442ZM147.502 121.579C147.555 121.771 147.498 121.968 147.368 122.005C147.238 122.041 146.972 122.193 146.757 122.331C146.524 122.5 146.348 122.472 146.28 122.232C146.18 121.872 146.477 121.53 147.095 121.331C147.245 121.263 147.448 121.387 147.502 121.579ZM146.252 122.731C146.562 123.136 146.454 123.554 145.986 123.685C145.439 123.838 145.129 123.434 145.36 122.955C145.649 122.383 145.909 122.31 146.252 122.731ZM148.074 122.221C148.701 122.252 148.803 122.818 148.292 123.298C147.411 124.062 146.329 123.408 147.171 122.603C147.63 122.138 147.533 122.191 148.074 122.221ZM145.39 124.266C145.543 124.611 145.44 124.847 145.103 125.045C144.544 125.356 144.078 124.995 144.164 124.299C144.224 123.713 145.118 123.695 145.39 124.266ZM147.832 124.461C148.083 124.856 147.999 124.957 147.432 125.039C146.546 125.183 145.791 124.593 146.224 124.136C146.664 123.702 147.475 123.889 147.832 124.461Z" fill="#E81224"/>
<path d="M194.756 87.4751C194.631 87.6256 194.629 87.9023 194.745 88.0645C194.861 88.2266 194.727 88.5053 194.397 88.741C193.737 89.2123 193.787 90.4924 194.48 90.579C194.699 90.6064 195.011 90.9038 195.162 91.255C195.471 92.0136 196.31 92.1185 196.876 91.4694C197.105 91.1841 197.61 91.0072 198.172 91.0036C198.924 90.9869 199.115 90.8815 199.388 90.3803C199.602 89.9825 199.568 89.7013 199.313 89.4849C199.074 89.2888 199.039 89.0997 199.215 88.9741C199.391 88.8484 199.532 88.4414 199.534 88.0725C199.553 87.4472 199.495 87.3661 198.846 87.248C198.445 87.1979 197.964 86.9901 197.761 86.7985C197.515 86.5462 197.23 86.5659 196.87 86.8533C196.577 87.0935 196.087 87.1984 195.788 87.1057C195.19 86.9202 195.088 86.9628 194.756 87.4751ZM195.924 87.5288C196.404 87.8288 196.246 88.5844 195.698 88.516C195.224 88.4567 194.966 87.7229 195.318 87.4715C195.45 87.3773 195.706 87.4092 195.924 87.5288ZM195.214 88.9538C195.958 89.0653 196.094 89.4884 195.535 90.0094C195.065 90.4675 194.439 90.2415 194.297 89.5776C194.176 89.0825 194.484 88.8626 195.214 88.9538ZM197.73 87.1269C197.846 87.2891 197.859 87.4938 197.749 87.5724C197.639 87.6509 197.44 87.8845 197.286 88.0867C197.123 88.3249 196.948 88.3584 196.803 88.1557C196.586 87.8516 196.75 87.429 197.263 87.0317C197.381 86.9171 197.614 86.9648 197.73 87.1269ZM196.946 88.635C197.375 88.9102 197.416 89.3399 197.02 89.6227C196.558 89.9526 196.129 89.6775 196.183 89.1489C196.261 88.5124 196.481 88.3553 196.946 88.635ZM198.487 87.5354C199.087 87.3519 199.375 87.8495 199.057 88.4744C198.488 89.4925 197.249 89.2452 197.767 88.2023C198.041 87.6088 197.967 87.692 198.487 87.5354ZM196.657 90.3712C196.918 90.6438 196.902 90.9003 196.652 91.2013C196.232 91.6842 195.671 91.5033 195.515 90.8192C195.373 90.2476 196.207 89.9273 196.657 90.3712ZM199.02 89.7251C199.39 90.0114 199.346 90.135 198.84 90.4041C198.056 90.8415 197.145 90.543 197.397 89.9653C197.664 89.4079 198.49 89.308 199.02 89.7251Z" fill="#E81224"/>
<path d="M158.493 95.6295C158.352 95.7659 158.321 96.0408 158.419 96.2143C158.517 96.3879 158.355 96.6509 158.001 96.8501C157.295 97.2486 157.208 98.5267 157.888 98.6865C158.103 98.737 158.382 99.0659 158.495 99.4312C158.721 100.218 159.544 100.412 160.177 99.8264C160.434 99.567 160.955 99.4448 161.514 99.501C162.264 99.5642 162.464 99.4797 162.79 99.0104C163.045 98.6376 163.04 98.3542 162.811 98.1121C162.593 97.8916 162.578 97.6999 162.767 97.5937C162.955 97.4874 163.139 97.0978 163.18 96.7312C163.266 96.1114 163.217 96.0246 162.584 95.8383C162.19 95.7458 161.734 95.4881 161.553 95.2761C161.334 94.9989 161.049 94.9883 160.661 95.2358C160.343 95.4435 159.845 95.4957 159.558 95.3718C158.983 95.1239 158.877 95.1553 158.493 95.6295ZM159.648 95.807C160.093 96.1563 159.856 96.8908 159.319 96.7646C158.854 96.6553 158.675 95.8982 159.052 95.6857C159.193 95.606 159.444 95.6649 159.648 95.807ZM158.79 97.1485C159.518 97.3384 159.609 97.7736 158.998 98.2322C158.482 98.6378 157.883 98.3465 157.813 97.6714C157.745 97.1662 158.075 96.9803 158.79 97.1485ZM161.487 95.5993C161.584 95.7728 161.576 95.9778 161.458 96.0442C161.34 96.1106 161.118 96.3218 160.943 96.5064C160.756 96.726 160.578 96.7406 160.456 96.5237C160.272 96.1983 160.48 95.7954 161.033 95.4549C161.162 95.3536 161.389 95.4257 161.487 95.5993ZM160.547 97.0156C160.944 97.3348 160.939 97.7664 160.515 98.0055C160.021 98.2844 159.624 97.9653 159.734 97.4455C159.878 96.8208 160.114 96.688 160.547 97.0156ZM162.196 96.0858C162.812 95.9671 163.046 96.4926 162.663 97.0801C161.989 98.032 160.783 97.6544 161.409 96.6724C161.744 96.1115 161.662 96.1863 162.196 96.0858ZM160.075 98.7112C160.306 99.01 160.263 99.2633 159.982 99.536C159.513 99.9717 158.975 99.7322 158.892 99.0354C158.812 98.4518 159.675 98.222 160.075 98.7112ZM162.493 98.3197C162.831 98.6438 162.774 98.762 162.242 98.9759C161.416 99.3274 160.542 98.9339 160.854 98.3862C161.179 97.8603 162.01 97.8487 162.493 98.3197Z" fill="#FF8C00"/>
<path d="M170.561 103.413C170.42 103.549 170.389 103.824 170.487 103.998C170.585 104.171 170.423 104.434 170.07 104.633C169.363 105.032 169.277 106.31 169.957 106.47C170.172 106.52 170.45 106.849 170.563 107.214C170.79 108.002 171.613 108.195 172.245 107.61C172.502 107.35 173.023 107.228 173.582 107.284C174.332 107.347 174.533 107.263 174.858 106.794C175.113 106.421 175.109 106.137 174.879 105.895C174.662 105.675 174.647 105.483 174.835 105.377C175.023 105.271 175.207 104.881 175.249 104.514C175.334 103.895 175.285 103.808 174.652 103.621C174.258 103.529 173.803 103.271 173.621 103.059C173.403 102.782 173.117 102.772 172.729 103.019C172.412 103.227 171.913 103.279 171.626 103.155C171.052 102.907 170.945 102.939 170.561 103.413ZM171.716 103.59C172.162 103.939 171.924 104.674 171.387 104.548C170.922 104.438 170.743 103.681 171.12 103.469C171.262 103.389 171.512 103.448 171.716 103.59ZM170.859 104.932C171.587 105.122 171.677 105.557 171.066 106.015C170.55 106.421 169.951 106.13 169.881 105.455C169.813 104.949 170.143 104.763 170.859 104.932ZM173.555 103.382C173.653 103.556 173.644 103.761 173.527 103.827C173.409 103.894 173.186 104.105 173.011 104.29C172.825 104.509 172.647 104.524 172.524 104.307C172.341 103.982 172.548 103.579 173.101 103.238C173.23 103.137 173.457 103.209 173.555 103.382ZM172.615 104.799C173.013 105.118 173.008 105.55 172.584 105.789C172.089 106.068 171.692 105.748 171.802 105.229C171.947 104.604 172.182 104.471 172.615 104.799ZM174.264 103.869C174.88 103.75 175.114 104.276 174.732 104.863C174.058 105.815 172.851 105.438 173.477 104.456C173.813 103.895 173.731 103.969 174.264 103.869ZM172.144 106.494C172.374 106.793 172.331 107.046 172.05 107.319C171.582 107.755 171.043 107.515 170.961 106.819C170.88 106.235 171.744 106.005 172.144 106.494ZM174.562 106.103C174.9 106.427 174.842 106.545 174.311 106.759C173.485 107.111 172.611 106.717 172.923 106.169C173.247 105.643 174.079 105.632 174.562 106.103Z" fill="#FF8C00"/>
<path d="M108.103 116.455C107.922 116.528 107.79 116.772 107.815 116.969C107.841 117.167 107.592 117.35 107.19 117.402C106.386 117.507 105.827 118.66 106.397 119.063C106.578 119.19 106.713 119.599 106.68 119.98C106.596 120.795 107.286 121.283 108.092 120.977C108.428 120.833 108.956 120.915 109.454 121.176C110.125 121.516 110.343 121.513 110.82 121.199C111.197 120.949 111.299 120.685 111.176 120.374C111.057 120.088 111.115 119.905 111.33 119.877C111.544 119.849 111.861 119.557 112.037 119.233C112.348 118.69 112.335 118.591 111.818 118.181C111.488 117.948 111.162 117.538 111.073 117.273C110.974 116.935 110.713 116.818 110.261 116.902C109.889 116.976 109.407 116.837 109.187 116.615C108.747 116.17 108.637 116.159 108.103 116.455ZM109.108 117.052C109.39 117.543 108.894 118.135 108.444 117.817C108.053 117.541 108.171 116.772 108.6 116.716C108.761 116.695 108.972 116.844 109.108 117.052ZM107.81 117.975C108.414 118.423 108.334 118.861 107.596 119.057C106.966 119.24 106.52 118.745 106.707 118.093C106.834 117.599 107.209 117.55 107.81 117.975ZM110.89 117.548C110.916 117.746 110.831 117.933 110.697 117.95C110.563 117.968 110.278 118.08 110.046 118.186C109.791 118.319 109.62 118.266 109.588 118.019C109.54 117.649 109.883 117.353 110.523 117.245C110.681 117.199 110.864 117.351 110.89 117.548ZM109.488 118.509C109.737 118.954 109.571 119.353 109.088 119.416C108.525 119.489 108.276 119.044 108.574 118.603C108.941 118.078 109.21 118.043 109.488 118.509ZM111.365 118.265C111.981 118.386 112.001 118.961 111.426 119.362C110.445 119.992 109.468 119.19 110.416 118.514C110.937 118.12 110.833 118.159 111.365 118.265ZM108.416 119.905C108.518 120.268 108.382 120.487 108.02 120.635C107.423 120.863 107.013 120.439 107.197 119.762C107.341 119.191 108.228 119.301 108.416 119.905ZM110.804 120.448C110.996 120.875 110.899 120.963 110.326 120.962C109.428 120.979 108.765 120.286 109.26 119.895C109.758 119.529 110.533 119.83 110.804 120.448Z" fill="#FF8C00"/>
<path d="M116.376 128.193C116.195 128.266 116.063 128.51 116.089 128.707C116.115 128.905 115.866 129.088 115.464 129.14C114.659 129.245 114.1 130.398 114.671 130.801C114.851 130.928 114.986 131.337 114.954 131.718C114.869 132.533 115.56 133.021 116.365 132.715C116.701 132.571 117.23 132.652 117.727 132.914C118.399 133.254 118.616 133.25 119.094 132.937C119.47 132.687 119.572 132.423 119.45 132.112C119.331 131.826 119.389 131.643 119.603 131.615C119.818 131.587 120.134 131.295 120.31 130.97C120.621 130.428 120.608 130.329 120.091 129.919C119.761 129.686 119.435 129.276 119.346 129.011C119.247 128.673 118.987 128.556 118.534 128.64C118.162 128.714 117.68 128.575 117.461 128.353C117.021 127.908 116.91 127.897 116.376 128.193ZM117.381 128.79C117.663 129.281 117.168 129.873 116.717 129.555C116.327 129.279 116.445 128.51 116.874 128.454C117.035 128.433 117.245 128.582 117.381 128.79ZM116.083 129.713C116.687 130.161 116.608 130.599 115.87 130.795C115.239 130.978 114.793 130.483 114.981 129.831C115.107 129.337 115.483 129.288 116.083 129.713ZM119.164 129.286C119.189 129.484 119.105 129.671 118.971 129.688C118.836 129.706 118.551 129.818 118.32 129.924C118.064 130.057 117.894 130.004 117.862 129.757C117.813 129.387 118.157 129.091 118.797 128.982C118.955 128.937 119.138 129.089 119.164 129.286ZM117.762 130.247C118.011 130.692 117.844 131.091 117.362 131.153C116.799 131.227 116.55 130.782 116.847 130.341C117.215 129.816 117.483 129.781 117.762 130.247ZM119.639 130.003C120.254 130.124 120.275 130.699 119.7 131.1C118.718 131.73 117.741 130.928 118.69 130.252C119.211 129.858 119.107 129.897 119.639 130.003ZM116.689 131.643C116.791 132.006 116.656 132.225 116.293 132.373C115.696 132.601 115.286 132.177 115.471 131.5C115.615 130.929 116.502 131.039 116.689 131.643ZM119.078 132.186C119.27 132.613 119.172 132.701 118.599 132.7C117.702 132.717 117.039 132.024 117.533 131.633C118.031 131.267 118.806 131.568 119.078 132.186Z" fill="#FF8C00"/>
<path d="M22.3192 112.782L19.6372 98.4906C57.668 103.306 85.3348 103.309 110.363 96.3179C135.373 89.3323 157.597 75.4066 184.825 52.6569L190.898 67.1678C164.841 90.2191 142.625 104.294 117.06 111.294C91.4385 118.31 62.2991 118.264 22.3192 112.782Z" fill="#E81224" stroke="#F09E39" stroke-width="3"/>
<path d="M24.1279 109.85C24.4328 110.417 26.3086 111.285 26.4206 110.911C26.4766 110.725 25.9509 110.33 25.2416 109.981C24.4919 109.654 23.9973 109.608 24.1279 109.85Z" fill="#FFCC4D"/>
<path d="M30.8194 111.23C31.1426 111.786 33.0458 112.592 33.1455 112.215C33.1954 112.027 32.657 111.649 31.9367 111.324C31.1768 111.022 30.6809 110.992 30.8194 111.23Z" fill="#FFCC4D"/>
<path d="M36.8399 112.568C37.1631 113.124 39.0663 113.93 39.166 113.553C39.2159 113.365 38.6775 112.987 37.9572 112.662C37.1973 112.36 36.7014 112.33 36.8399 112.568Z" fill="#FFCC4D"/>
<path d="M42.8735 113.45C43.2896 113.94 45.3051 114.398 45.3368 114.01C45.3527 113.816 44.7562 113.539 43.9899 113.346C43.1886 113.183 42.6951 113.24 42.8735 113.45Z" fill="#FFCC4D"/>
<path d="M48.8939 113.726C49.3091 114.217 51.3238 114.679 51.3562 114.29C51.3725 114.096 50.7765 113.818 50.0105 113.624C49.2095 113.459 48.7159 113.515 48.8939 113.726Z" fill="#FFCC4D"/>
<path d="M56.2565 114.369C56.7074 114.828 58.7511 115.137 58.7542 114.747C58.7558 114.552 58.1406 114.32 57.3622 114.184C56.5511 114.08 56.0632 114.173 56.2565 114.369Z" fill="#FFCC4D"/>
<path d="M63.6107 114.163C64.0461 114.636 66.0783 115.013 66.0945 114.624C66.1026 114.429 65.4955 114.176 64.7221 114.014C63.9149 113.883 63.4241 113.96 63.6107 114.163Z" fill="#FFCC4D"/>
<path d="M70.9497 114.488C71.4209 114.926 73.4764 115.142 73.462 114.753C73.4547 114.558 72.8297 114.354 72.0459 114.253C71.2309 114.185 70.7477 114.301 70.9497 114.488Z" fill="#FFCC4D"/>
<path d="M77.6384 114.512C78.1135 114.945 80.1709 115.143 80.1529 114.754C80.144 114.559 79.5171 114.361 78.7325 114.267C77.9169 114.207 77.4348 114.326 77.6384 114.512Z" fill="#FFCC4D"/>
<path d="M85.0267 114.337C85.5405 114.724 87.6074 114.727 87.5529 114.341C87.5256 114.148 86.8828 114.009 86.0929 113.99C85.2753 114.007 84.8065 114.171 85.0267 114.337Z" fill="#FFCC4D"/>
<path d="M92.391 113.821C92.9265 114.177 94.99 114.059 94.9131 113.677C94.8746 113.486 94.2248 113.385 93.435 113.412C92.6198 113.477 92.1615 113.668 92.391 113.821Z" fill="#FFCC4D"/>
<path d="M99.7455 112.461C100.281 112.817 102.345 112.7 102.268 112.318C102.229 112.127 101.579 112.026 100.789 112.052C99.9743 112.117 99.516 112.309 99.7455 112.461Z" fill="#FFCC4D"/>
<path d="M107.103 111.123C107.638 111.479 109.702 111.362 109.625 110.98C109.587 110.789 108.937 110.688 108.147 110.714C107.332 110.779 106.873 110.971 107.103 111.123Z" fill="#FFCC4D"/>
<path d="M114.459 109.786C114.995 110.142 117.058 110.024 116.981 109.642C116.943 109.451 116.293 109.35 115.503 109.377C114.688 109.441 114.23 109.633 114.459 109.786Z" fill="#FFCC4D"/>
<path d="M121.149 107.779C121.684 108.135 123.748 108.018 123.671 107.636C123.632 107.445 122.983 107.344 122.193 107.37C121.378 107.435 120.919 107.627 121.149 107.779Z" fill="#FFCC4D"/>
<path d="M127.232 106.214C127.821 106.473 129.833 106.002 129.692 105.639C129.621 105.457 128.963 105.47 128.19 105.632C127.398 105.836 126.98 106.103 127.232 106.214Z" fill="#FFCC4D"/>
<path d="M133.995 103.542C134.616 103.709 136.534 102.939 136.34 102.602C136.242 102.433 135.594 102.545 134.854 102.821C134.102 103.143 133.729 103.471 133.995 103.542Z" fill="#FFCC4D"/>
<path d="M139.89 100.438C140.511 100.605 142.429 99.8355 142.234 99.4979C142.137 99.3291 141.489 99.4405 140.749 99.7175C139.997 100.039 139.623 100.367 139.89 100.438Z" fill="#FFCC4D"/>
<path d="M145.909 97.7628C146.53 97.9295 148.449 97.1602 148.254 96.8226C148.156 96.6538 147.508 96.7653 146.768 97.0422C146.016 97.3636 145.643 97.6914 145.909 97.7628Z" fill="#FFCC4D"/>
<path d="M151.929 93.7497C152.55 93.9164 154.468 93.1471 154.273 92.8095C154.176 92.6407 153.528 92.7522 152.788 93.0291C152.036 93.3505 151.662 93.6783 151.929 93.7497Z" fill="#FFCC4D"/>
<path d="M158.146 90.0716C158.785 90.1419 160.565 89.09 160.321 88.7859C160.199 88.6339 159.575 88.8425 158.886 89.2288C158.191 89.6607 157.872 90.0414 158.146 90.0716Z" fill="#FFCC4D"/>
<path d="M163.97 86.2676C164.61 86.3379 166.389 85.286 166.145 84.9819C166.023 84.8299 165.399 85.0386 164.71 85.4248C164.016 85.8567 163.697 86.2374 163.97 86.2676Z" fill="#FFCC4D"/>
<path d="M169.99 81.5857C170.629 81.656 172.408 80.6041 172.165 80.3C172.043 80.148 171.419 80.3566 170.73 80.7429C170.035 81.1748 169.716 81.5555 169.99 81.5857Z" fill="#FFCC4D"/>
<path d="M175.342 77.5726C175.981 77.6429 177.76 76.591 177.516 76.2869C177.394 76.1349 176.771 76.3435 176.081 76.7298C175.387 77.1617 175.068 77.5424 175.342 77.5726Z" fill="#FFCC4D"/>
<path d="M180.692 72.8907C181.331 72.961 183.11 71.9091 182.867 71.605C182.745 71.453 182.121 71.6616 181.432 72.0479C180.737 72.4798 180.418 72.8605 180.692 72.8907Z" fill="#FFCC4D"/>
<path d="M185.374 68.8778C186.013 68.9481 187.792 67.8962 187.548 67.5921C187.426 67.4401 186.803 67.6488 186.113 68.035C185.419 68.4669 185.1 68.8476 185.374 68.8778Z" fill="#FFCC4D"/>
<path d="M28.3676 111.428C28.5978 111.565 28.9088 111.658 29.0302 111.593C29.1111 111.549 29.0831 111.304 28.9742 111.102C28.8435 110.859 28.5542 110.806 28.3116 110.937C28.1094 111.046 28.1156 111.251 28.3676 111.428Z" fill="#FFCC4D"/>
<path d="M35.1083 112.668C35.3429 112.797 35.6568 112.88 35.7759 112.811C35.8554 112.765 35.8194 112.52 35.7039 112.322C35.5654 112.084 35.2745 112.04 35.0363 112.179C34.8378 112.294 34.8507 112.499 35.1083 112.668Z" fill="#FFCC4D"/>
<path d="M41.1288 114.006C41.3634 114.135 41.6773 114.218 41.7965 114.149C41.8759 114.103 41.8399 113.858 41.7244 113.66C41.5859 113.421 41.295 113.378 41.0568 113.516C40.8583 113.632 40.8712 113.837 41.1288 114.006Z" fill="#FFCC4D"/>
<path d="M47.3498 114.11C47.6034 114.196 47.9271 114.222 48.0322 114.133C48.1022 114.074 48.0236 113.839 47.875 113.664C47.6967 113.454 47.4027 113.463 47.1926 113.641C47.0175 113.79 47.0664 113.989 47.3498 114.11Z" fill="#FFCC4D"/>
<path d="M53.3671 114.394C53.6206 114.481 53.9442 114.508 54.0495 114.419C54.1196 114.359 54.0414 114.125 53.8931 113.949C53.7152 113.739 53.4212 113.747 53.2108 113.925C53.0354 114.073 53.0839 114.273 53.3671 114.394Z" fill="#FFCC4D"/>
<path d="M60.769 114.7C61.0282 114.767 61.353 114.77 61.4512 114.673C61.5167 114.609 61.4211 114.381 61.2601 114.217C61.0668 114.02 60.7742 114.051 60.5778 114.244C60.4141 114.405 60.4775 114.6 60.769 114.7Z" fill="#FFCC4D"/>
<path d="M68.1097 114.643C68.3666 114.719 68.6911 114.732 68.7924 114.639C68.86 114.577 68.7721 114.345 68.6166 114.176C68.43 113.974 68.1366 113.994 67.9338 114.181C67.7648 114.336 67.8216 114.533 68.1097 114.643Z" fill="#FFCC4D"/>
<path d="M75.4721 114.614C75.7342 114.669 76.0587 114.657 76.1525 114.556C76.215 114.489 76.1092 114.265 75.9409 114.109C75.739 113.921 75.4481 113.965 75.2605 114.167C75.1043 114.335 75.1764 114.527 75.4721 114.614Z" fill="#FFCC4D"/>
<path d="M82.1613 114.597C82.4238 114.65 82.7483 114.635 82.8411 114.533C82.903 114.465 82.7952 114.242 82.6255 114.088C82.4219 113.902 82.1314 113.948 81.9457 114.151C81.791 114.321 81.8648 114.513 82.1613 114.597Z" fill="#FFCC4D"/>
<path d="M89.5381 113.995C89.8045 114.023 90.1261 113.978 90.2089 113.868C90.2642 113.794 90.1359 113.583 89.9524 113.445C89.7322 113.279 89.4473 113.352 89.2816 113.572C89.1435 113.756 89.2351 113.94 89.5381 113.995Z" fill="#FFCC4D"/>
<path d="M96.874 113.216C97.1416 113.228 97.4599 113.164 97.5362 113.049C97.5871 112.973 97.4467 112.769 97.2554 112.642C97.0259 112.489 96.7458 112.579 96.5932 112.808C96.4661 113 96.5682 113.178 96.874 113.216Z" fill="#FFCC4D"/>
<path d="M104.229 111.855C104.496 111.868 104.814 111.804 104.891 111.689C104.942 111.612 104.801 111.409 104.61 111.282C104.38 111.129 104.1 111.219 103.948 111.448C103.821 111.64 103.923 111.818 104.229 111.855Z" fill="#FFCC4D"/>
<path d="M111.586 110.518C111.853 110.53 112.172 110.466 112.248 110.351C112.299 110.275 112.159 110.071 111.967 109.944C111.738 109.792 111.458 109.881 111.305 110.111C111.178 110.302 111.28 110.48 111.586 110.518Z" fill="#FFCC4D"/>
<path d="M118.943 109.18C119.211 109.193 119.529 109.128 119.606 109.014C119.656 108.937 119.516 108.734 119.325 108.606C119.095 108.454 118.815 108.543 118.663 108.773C118.535 108.964 118.638 109.142 118.943 109.18Z" fill="#FFCC4D"/>
<path d="M125.632 107.174C125.899 107.186 126.218 107.122 126.294 107.007C126.345 106.931 126.204 106.727 126.013 106.6C125.784 106.448 125.504 106.537 125.351 106.767C125.224 106.958 125.326 107.136 125.632 107.174Z" fill="#FFCC4D"/>
<path d="M131.545 104.846C131.811 104.812 132.113 104.694 132.169 104.568C132.206 104.484 132.032 104.308 131.822 104.215C131.57 104.105 131.309 104.241 131.198 104.493C131.106 104.704 131.237 104.861 131.545 104.846Z" fill="#FFCC4D"/>
<path d="M138.053 101.538C138.31 101.464 138.591 101.302 138.627 101.169C138.651 101.08 138.453 100.932 138.231 100.873C137.965 100.801 137.728 100.975 137.657 101.242C137.597 101.463 137.751 101.6 138.053 101.538Z" fill="#FFCC4D"/>
<path d="M143.946 98.4342C144.204 98.3607 144.485 98.1984 144.521 98.0653C144.545 97.9766 144.347 97.8283 144.125 97.7688C143.859 97.6974 143.622 97.8716 143.55 98.1378C143.491 98.3596 143.644 98.4959 143.946 98.4342Z" fill="#FFCC4D"/>
<path d="M149.966 95.759C150.223 95.6854 150.505 95.5231 150.54 95.3901C150.564 95.3013 150.366 95.1531 150.144 95.0936C149.878 95.0222 149.641 95.1964 149.57 95.4625C149.51 95.6843 149.664 95.8207 149.966 95.759Z" fill="#FFCC4D"/>
<path d="M155.985 91.7459C156.243 91.6723 156.524 91.51 156.56 91.3769C156.584 91.2882 156.386 91.14 156.164 91.0805C155.898 91.009 155.661 91.1832 155.589 91.4494C155.53 91.6712 155.683 91.8075 155.985 91.7459Z" fill="#FFCC4D"/>
<path d="M161.851 87.4747C162.095 87.3628 162.348 87.1597 162.363 87.0227C162.373 86.9314 162.155 86.815 161.927 86.7899C161.653 86.7597 161.445 86.9679 161.415 87.2418C161.39 87.4701 161.562 87.5815 161.851 87.4747Z" fill="#FFCC4D"/>
<path d="M167.676 83.6705C167.919 83.5586 168.172 83.3554 168.187 83.2185C168.197 83.1272 167.979 83.0107 167.751 82.9856C167.477 82.9555 167.269 83.1637 167.239 83.4376C167.214 83.6659 167.387 83.7773 167.676 83.6705Z" fill="#FFCC4D"/>
<path d="M173.695 78.9888C173.938 78.8769 174.192 78.6737 174.207 78.5368C174.217 78.4455 173.999 78.329 173.77 78.3039C173.496 78.2738 173.289 78.482 173.259 78.7559C173.233 78.9842 173.406 79.0956 173.695 78.9888Z" fill="#FFCC4D"/>
<path d="M179.046 74.9757C179.289 74.8638 179.542 74.6607 179.557 74.5237C179.567 74.4324 179.349 74.316 179.121 74.2909C178.847 74.2607 178.639 74.4689 178.609 74.7429C178.584 74.9711 178.757 75.0825 179.046 74.9757Z" fill="#FFCC4D"/>
<path d="M184.397 70.2938C184.641 70.1819 184.894 69.9787 184.909 69.8418C184.919 69.7505 184.701 69.634 184.473 69.6089C184.199 69.5788 183.991 69.787 183.961 70.0609C183.936 70.2892 184.108 70.4006 184.397 70.2938Z" fill="#FFCC4D"/>
<path d="M189.079 66.2807C189.322 66.1688 189.576 65.9657 189.591 65.8287C189.601 65.7374 189.382 65.621 189.154 65.5959C188.88 65.5657 188.673 65.7739 188.642 66.0478C188.617 66.2761 188.79 66.3875 189.079 66.2807Z" fill="#FFCC4D"/>
<rect x="34.7119" y="106.311" width="4.68187" height="4.68187" transform="rotate(135 34.7119 106.311)" fill="url(#paint0_linear_1_4248)"/>
<rect x="62.8037" y="108.318" width="4.68187" height="4.68187" transform="rotate(135 62.8037 108.318)" fill="url(#paint1_linear_1_4248)"/>
<rect x="87.4639" y="107.742" width="4.68187" height="4.68187" transform="rotate(125.736 87.4639 107.742)" fill="url(#paint2_linear_1_4248)"/>
<rect x="113.463" y="103.346" width="4.68187" height="4.68187" transform="rotate(118.955 113.463 103.346)" fill="url(#paint3_linear_1_4248)"/>
<rect x="137.896" y="93.9861" width="4.68187" height="4.68187" transform="rotate(108.158 137.896 93.9861)" fill="url(#paint4_linear_1_4248)"/>
<rect x="158.488" y="81.5722" width="4.68187" height="4.68187" transform="rotate(90.7297 158.488 81.5722)" fill="url(#paint5_linear_1_4248)"/>
<rect x="181.92" y="64.2084" width="4.68187" height="4.68187" transform="rotate(87.7148 181.92 64.2084)" fill="url(#paint6_linear_1_4248)"/>
<defs>
<linearGradient id="paint0_linear_1_4248" x1="37.0528" y1="106.311" x2="37.0528" y2="110.993" gradientUnits="userSpaceOnUse">
<stop stop-color="#E7E7E7"/>
<stop offset="0.484375" stop-color="white"/>
<stop offset="1" stop-color="#E7E7E7"/>
</linearGradient>
<linearGradient id="paint1_linear_1_4248" x1="65.1446" y1="108.318" x2="65.1446" y2="113" gradientUnits="userSpaceOnUse">
<stop stop-color="#E7E7E7"/>
<stop offset="0.484375" stop-color="white"/>
<stop offset="1" stop-color="#E7E7E7"/>
</linearGradient>
<linearGradient id="paint2_linear_1_4248" x1="89.8048" y1="107.742" x2="89.8048" y2="112.424" gradientUnits="userSpaceOnUse">
<stop stop-color="#E7E7E7"/>
<stop offset="0.484375" stop-color="white"/>
<stop offset="1" stop-color="#E7E7E7"/>
</linearGradient>
<linearGradient id="paint3_linear_1_4248" x1="115.804" y1="103.346" x2="115.804" y2="108.028" gradientUnits="userSpaceOnUse">
<stop stop-color="#E7E7E7"/>
<stop offset="0.484375" stop-color="white"/>
<stop offset="1" stop-color="#E7E7E7"/>
</linearGradient>
<linearGradient id="paint4_linear_1_4248" x1="140.237" y1="93.9861" x2="140.237" y2="98.668" gradientUnits="userSpaceOnUse">
<stop stop-color="#E7E7E7"/>
<stop offset="0.484375" stop-color="white"/>
<stop offset="1" stop-color="#E7E7E7"/>
</linearGradient>
<linearGradient id="paint5_linear_1_4248" x1="160.829" y1="81.5722" x2="160.829" y2="86.2541" gradientUnits="userSpaceOnUse">
<stop stop-color="#E7E7E7"/>
<stop offset="0.484375" stop-color="white"/>
<stop offset="1" stop-color="#E7E7E7"/>
</linearGradient>
<linearGradient id="paint6_linear_1_4248" x1="184.261" y1="64.2084" x2="184.261" y2="68.8903" gradientUnits="userSpaceOnUse">
<stop stop-color="#E7E7E7"/>
<stop offset="0.484375" stop-color="white"/>
<stop offset="1" stop-color="#E7E7E7"/>
</linearGradient>
</defs>
</svg>
