<svg width="139" height="139" viewBox="0 0 139 139" fill="none" xmlns="http://www.w3.org/2000/svg">
<g clip-path="url(#clip0_1_3906)">
<path d="M102.01 60.7898C102.717 63.4259 103.866 65.822 105.356 67.9242C110.606 75.3358 120.094 79.0758 129.378 76.5881L121.829 48.413L117.812 33.4212C105.891 36.6152 98.8162 48.8693 102.01 60.7898Z" fill="#F7B239"/>
<path d="M117.812 33.4211L121.829 48.413C112.544 50.9007 106.201 58.8828 105.359 67.9235L105.356 67.9242C103.866 65.8219 102.717 63.4259 102.01 60.7898C98.8164 48.8693 105.891 36.6152 117.812 33.4211Z" fill="#F95428"/>
<path d="M33.641 71.0753C28.391 63.6639 18.9064 59.9229 9.62207 62.4106L17.1724 90.5887L21.1886 105.578C33.1091 102.384 40.1818 90.133 36.9878 78.2127C36.2814 75.5766 35.1315 73.1776 33.641 71.0753Z" fill="#F7B239"/>
<path d="M33.6401 71.0762C35.1306 73.1786 36.2807 75.5775 36.987 78.2136C40.1811 90.1341 33.1082 102.385 21.1879 105.579L17.1717 90.5896C26.456 88.1019 32.7957 80.1178 33.6374 71.0772L33.6401 71.0765L33.6401 71.0762Z" fill="#F95428"/>
<path d="M72.1689 33.0249C68.195 32.733 64.1058 33.0913 60.0385 34.1811C55.9712 35.271 52.2478 37.0061 48.9494 39.2465L48.9502 39.2494C36.4345 47.7464 30.0458 63.5258 34.1826 78.9648C38.3187 94.4008 51.7412 104.872 66.8287 105.973C70.8063 106.267 74.8982 105.908 78.9655 104.818C83.0328 103.728 86.7533 101.994 90.0489 99.754C102.565 91.257 108.955 75.474 104.819 60.0379C100.683 44.5987 87.2563 34.1258 72.1689 33.0249Z" fill="#F7B239"/>
<path d="M72.1708 33.0236L90.0507 99.7526C86.7551 101.992 83.0347 103.727 78.9674 104.816C74.9001 105.906 70.8079 106.265 66.8305 105.971L48.952 39.248L48.9512 39.245C52.2498 37.0046 55.973 35.2695 60.0403 34.1797C64.1076 33.0898 68.1968 32.7318 72.1708 33.0236Z" fill="#F95428"/>
<path d="M72.1717 33.0236L90.0517 99.7526C86.7561 101.992 83.0357 103.727 78.9683 104.816C74.901 105.906 70.8089 106.265 66.8315 105.971L48.953 39.248L48.9522 39.245C52.2508 37.0046 55.974 35.2695 60.0413 34.1797C64.1086 33.0898 68.1978 32.7318 72.1717 33.0236Z" fill="#F95428"/>
<path d="M45.9398 75.8143C43.1143 65.2695 45.2018 54.5676 50.795 46.1338L48.9503 39.2495C36.4346 47.7465 30.0459 63.5258 34.1828 78.9648C38.3188 94.4008 51.7413 104.872 66.8288 105.973L64.9841 99.0882C55.9234 94.5812 48.7647 86.357 45.9398 75.8143Z" fill="#E09B2D"/>
</g>
<defs>
<clipPath id="clip0_1_3906">
<rect width="112.008" height="112.008" fill="white" transform="translate(0.90918 29.8984) rotate(-15)"/>
</clipPath>
</defs>
</svg>
