<svg width="139" height="140" viewBox="0 0 139 140" fill="none" xmlns="http://www.w3.org/2000/svg">
<g clip-path="url(#clip0_1_4010)">
<path d="M120.791 114.62L46.8505 134.433L40.954 112.427L41.7541 94.2869L105.131 77.305L111.592 80.291L120.791 114.62Z" fill="black"/>
<path d="M54.5743 15.3769L63.0653 47.0655L31.3767 55.5564" fill="#773515"/>
<path d="M51.9963 19.8413L58.6004 44.4879L33.9537 51.092" fill="#632309"/>
<path d="M50.4578 28.1783L54.6654 41.7685L40.0534 45.6838" fill="#894121"/>
<path d="M86.2638 6.88577L54.5752 15.3767L63.0661 47.0653L94.7547 38.5744L86.2638 6.88577Z" fill="#773515"/>
<path d="M63.0661 47.0653L54.5752 15.3767L86.2638 6.88577" fill="#8E4829"/>
<path d="M74.8882 27.1044L86.2638 6.88577L54.5752 15.3767L74.8882 27.1044Z" fill="#9E683C"/>
<path d="M83.6857 11.3502L59.0391 17.9542L65.6431 42.6009L90.2898 35.9969L83.6857 11.3502Z" fill="#773515"/>
<path d="M83.6857 11.3502L90.2898 35.9969L65.6431 42.6009" fill="#632309"/>
<path d="M66.8059 32.8553L63.5039 20.532L75.8272 17.23" fill="#894121"/>
<path d="M63.0646 47.0653L31.376 55.5563L39.8669 87.2449L71.5555 78.7539L63.0646 47.0653Z" fill="#773515"/>
<path d="M39.8669 87.2449L31.376 55.5563L63.0646 47.0653" fill="#8E4829"/>
<path d="M51.5601 67.5072L63.2406 47.0182L31.376 55.5563L31.4703 55.9084L51.5601 67.5072Z" fill="#9E683C"/>
<path d="M60.4875 51.5301L35.8408 58.1342L42.4449 82.7808L67.0916 76.1768L60.4875 51.5301Z" fill="#773515"/>
<path d="M60.4875 51.5301L67.0916 76.1768L42.4449 82.7808" fill="#632309"/>
<path d="M42.3196 75.2667L38.5459 61.1829L52.6297 57.4091" fill="#894121"/>
<path d="M94.754 38.5743L63.0654 47.0652L71.5564 78.7538L103.245 70.2628L94.754 38.5743Z" fill="#773515"/>
<path d="M71.5564 78.7538L63.0654 47.0652L94.754 38.5743" fill="#8E4829"/>
<path d="M83.4256 58.9689L94.754 38.5743L63.0654 47.0652L63.1598 47.4173L83.4256 58.9689Z" fill="#9E683C"/>
<path d="M92.177 43.039L67.5303 49.6431L74.1343 74.2898L98.781 67.6857L92.177 43.039Z" fill="#773515"/>
<path d="M92.177 43.039L98.781 67.6857L74.1343 74.2898" fill="#632309"/>
<path d="M75.7679 66.3043L71.9941 52.2205L84.3175 48.9184" fill="#894121"/>
<path d="M71.5558 78.7543L39.8672 87.2452L48.8298 120.694L80.5184 112.203L71.5558 78.7543Z" fill="#773515"/>
<path d="M48.8298 120.694L39.8672 87.2452L71.5558 78.7543" fill="#8E4829"/>
<path d="M60.1456 99.5483L71.7318 78.7071L39.8672 87.2452L40.103 88.1255L60.1456 99.5483Z" fill="#9E683C"/>
<path d="M68.9787 83.2186L44.332 89.8226L51.4078 116.23L76.0545 109.626L68.9787 83.2186Z" fill="#773515"/>
<path d="M68.9787 83.2186L76.0545 109.626L51.4078 116.23" fill="#632309"/>
<path d="M50.8109 106.955L47.0371 92.8713L61.1209 89.0976" fill="#894121"/>
<path d="M103.245 70.2631L71.5566 78.754L80.5193 112.203L112.208 103.712L103.245 70.2631Z" fill="#773515"/>
<path d="M80.5193 112.203L71.5566 78.754L103.245 70.2631" fill="#8E4829"/>
<path d="M92.0111 91.0099L103.245 70.2631L71.5566 78.754L71.7925 79.6343L92.0111 91.0099Z" fill="#9E683C"/>
<path d="M100.667 74.7275L76.0205 81.3315L83.0963 107.739L107.743 101.135L100.667 74.7275Z" fill="#773515"/>
<path d="M100.667 74.7275L107.743 101.135L83.0963 107.739" fill="#632309"/>
<path d="M84.2591 97.9928L80.4854 83.9089L92.8087 80.6069" fill="#894121"/>
<path d="M120.791 114.621L46.8513 134.433L41.1435 113.131L53.0895 108.421L66.704 95.1495L112.3 82.932L120.791 114.621Z" fill="#FCE577"/>
<path d="M120.791 114.621L46.8513 134.433L69.5168 120.435L53.0895 108.421L66.704 95.1495L112.3 82.932L120.791 114.621Z" fill="#FFB31A"/>
<path d="M120.791 114.621L46.8513 134.433L42.0398 116.476L68.7999 119.872L75.1543 92.8852L112.3 82.932L120.791 114.621Z" fill="#551B7A"/>
<path d="M68.8005 119.872L75.1549 92.8849L112.301 82.9316L120.792 114.62" fill="#360B60"/>
<path d="M110.193 89.1567L108.433 89.6284L115.037 114.275L116.797 113.803L110.193 89.1567Z" fill="#C675CC"/>
<path d="M74.9838 98.591L74.5752 100.587L110.665 90.9172L110.193 89.1567L74.9838 98.591Z" fill="#C675CC"/>
</g>
<defs>
<clipPath id="clip0_1_4010">
<rect width="113" height="113" fill="white" transform="translate(0 30) rotate(-15)"/>
</clipPath>
</defs>
</svg>
