<svg width="123" height="123" viewBox="0 0 123 123" fill="none" xmlns="http://www.w3.org/2000/svg">
<g clip-path="url(#clip0_1_4425)">
<path d="M29.7366 111.511L10.1377 85.8297L37.1707 58.7967L47.308 45.956L42.5773 8.78571L50.0113 3.37912L75.0168 4.05494L81.7751 11.489L75.6926 36.4945L83.8025 43.2527V54.7418L113.539 87.1813L104.753 99.3462L87.8575 112.863L64.8795 119.621L29.7366 111.511Z" fill="#FFE353" stroke="white" stroke-width="0.4"/>
<path d="M116.375 83.4583L86.0953 53.1669C87.2113 51.175 87.8476 48.8802 87.8476 46.4388C87.8476 41.5833 85.3297 37.3054 81.5305 34.8436L84.9493 15.3539C85.592 11.5535 84.5284 7.67922 82.0317 4.7237C79.4957 1.72175 75.7743 0 71.822 0H50.9745C47.0219 0 43.3006 1.72175 40.7645 4.7237C38.2681 7.67871 37.2048 11.5535 37.8471 15.3539C37.8499 15.3707 37.8529 15.3876 37.8559 15.4044L42.6805 41.7603V47.3894L6.62497 83.4583C5.5014 84.5823 5.20444 86.291 5.88295 87.7286C8.76843 93.8412 12.6236 99.4109 17.3415 104.283C23.0121 110.139 29.6636 114.743 37.1106 117.968C44.8242 121.307 53.0301 123 61.5003 123C69.9705 123 78.1761 121.307 85.8897 117.967C93.3369 114.743 99.9882 110.139 105.659 104.283C110.377 99.4104 114.232 93.8405 117.117 87.7284C117.796 86.291 117.499 84.5821 116.375 83.4583ZM80.3195 46.4388C80.3195 49.8991 77.5053 52.7143 74.0463 52.7143C70.5872 52.7143 67.773 49.8991 67.773 46.4388C67.773 42.9785 70.5872 40.1633 74.0463 40.1633C74.7419 40.1633 75.4111 40.277 76.0371 40.4871C76.0783 40.5024 76.12 40.5167 76.1619 40.5305C78.5832 41.4005 80.3195 43.7207 80.3195 46.4388ZM46.5139 9.58471C47.6166 8.27941 49.2425 7.53061 50.9742 7.53061H71.8217C73.5535 7.53061 75.1794 8.27915 76.2821 9.58471C77.3608 10.8617 77.8028 12.4649 77.5307 14.0755L74.275 32.6349C74.1989 32.6337 74.1226 32.6329 74.0463 32.6329C67.7404 32.6329 62.4092 36.8849 60.7668 42.6737H50.2081V41.4186C50.2081 41.1912 50.1875 40.964 50.1464 40.7404L45.2658 14.0765C44.9972 12.4506 45.44 10.8559 46.5139 9.58471ZM102.215 96.9052L81.7265 76.4091C80.2568 74.9389 77.8733 74.9389 76.4036 76.4091C74.9336 77.8793 74.9336 80.2635 76.4036 81.734L96.8949 102.233C87.0835 110.8 74.6796 115.469 61.5 115.469C46.7676 115.469 33.0052 109.636 22.7485 99.0434C19.2189 95.3983 16.2398 91.3094 13.8692 86.8611L49.1059 51.6113C49.5068 51.2104 49.8078 50.7285 49.993 50.2041H60.7671C62.4095 55.9929 67.7407 60.2449 74.0465 60.2449C76.487 60.2449 78.781 59.6083 80.7721 58.492L109.131 86.8613C107.214 90.4592 104.898 93.8219 102.215 96.9052Z" fill="#FF8C00"/>
<rect x="15.2236" y="95.0122" width="4.68187" height="4.68187" transform="rotate(-170.308 15.2236 95.0122)" fill="url(#paint0_linear_1_4425)"/>
<rect x="20.8584" y="104.237" width="4.68187" height="4.68187" transform="rotate(-162.885 20.8584 104.237)" fill="url(#paint1_linear_1_4425)"/>
<rect x="30.7705" y="110.526" width="4.68187" height="4.68187" transform="rotate(177.01 30.7705 110.526)" fill="url(#paint2_linear_1_4425)"/>
<rect x="41.5518" y="114.986" width="4.68187" height="4.68187" transform="rotate(146.77 41.5518 114.986)" fill="url(#paint3_linear_1_4425)"/>
<rect x="53.4365" y="118.402" width="4.68187" height="4.68187" transform="rotate(139.601 53.4365 118.402)" fill="url(#paint4_linear_1_4425)"/>
<rect x="78.5117" y="116.497" width="4.68187" height="4.68187" transform="rotate(120.957 78.5117 116.497)" fill="url(#paint5_linear_1_4425)"/>
<rect x="90.207" y="111.802" width="4.68187" height="4.68187" transform="rotate(109.802 90.207 111.802)" fill="url(#paint6_linear_1_4425)"/>
<rect x="100.66" y="104.03" width="4.68187" height="4.68187" transform="rotate(98.5818 100.66 104.03)" fill="url(#paint7_linear_1_4425)"/>
<rect x="108.328" y="96.6987" width="4.68187" height="4.68187" transform="rotate(98.5818 108.328 96.6987)" fill="url(#paint8_linear_1_4425)"/>
<rect x="114.328" y="87.6987" width="4.68187" height="4.68187" transform="rotate(98.5818 114.328 87.6987)" fill="url(#paint9_linear_1_4425)"/>
<rect x="67.5996" y="119.565" width="4.68187" height="4.68187" transform="rotate(139.601 67.5996 119.565)" fill="url(#paint10_linear_1_4425)"/>
</g>
<defs>
<linearGradient id="paint0_linear_1_4425" x1="17.5646" y1="95.0122" x2="17.5646" y2="99.694" gradientUnits="userSpaceOnUse">
<stop stop-color="#E7E7E7"/>
<stop offset="0.484375" stop-color="white"/>
<stop offset="1" stop-color="#E7E7E7"/>
</linearGradient>
<linearGradient id="paint1_linear_1_4425" x1="23.1993" y1="104.237" x2="23.1993" y2="108.919" gradientUnits="userSpaceOnUse">
<stop stop-color="#E7E7E7"/>
<stop offset="0.484375" stop-color="white"/>
<stop offset="1" stop-color="#E7E7E7"/>
</linearGradient>
<linearGradient id="paint2_linear_1_4425" x1="33.1114" y1="110.526" x2="33.1114" y2="115.208" gradientUnits="userSpaceOnUse">
<stop stop-color="#E7E7E7"/>
<stop offset="0.484375" stop-color="white"/>
<stop offset="1" stop-color="#E7E7E7"/>
</linearGradient>
<linearGradient id="paint3_linear_1_4425" x1="43.8927" y1="114.986" x2="43.8927" y2="119.668" gradientUnits="userSpaceOnUse">
<stop stop-color="#E7E7E7"/>
<stop offset="0.484375" stop-color="white"/>
<stop offset="1" stop-color="#E7E7E7"/>
</linearGradient>
<linearGradient id="paint4_linear_1_4425" x1="55.7775" y1="118.402" x2="55.7775" y2="123.084" gradientUnits="userSpaceOnUse">
<stop stop-color="#E7E7E7"/>
<stop offset="0.484375" stop-color="white"/>
<stop offset="1" stop-color="#E7E7E7"/>
</linearGradient>
<linearGradient id="paint5_linear_1_4425" x1="80.8527" y1="116.497" x2="80.8527" y2="121.178" gradientUnits="userSpaceOnUse">
<stop stop-color="#E7E7E7"/>
<stop offset="0.484375" stop-color="white"/>
<stop offset="1" stop-color="#E7E7E7"/>
</linearGradient>
<linearGradient id="paint6_linear_1_4425" x1="92.548" y1="111.802" x2="92.548" y2="116.484" gradientUnits="userSpaceOnUse">
<stop stop-color="#E7E7E7"/>
<stop offset="0.484375" stop-color="white"/>
<stop offset="1" stop-color="#E7E7E7"/>
</linearGradient>
<linearGradient id="paint7_linear_1_4425" x1="103.001" y1="104.03" x2="103.001" y2="108.712" gradientUnits="userSpaceOnUse">
<stop stop-color="#E7E7E7"/>
<stop offset="0.484375" stop-color="white"/>
<stop offset="1" stop-color="#E7E7E7"/>
</linearGradient>
<linearGradient id="paint8_linear_1_4425" x1="110.669" y1="96.6987" x2="110.669" y2="101.381" gradientUnits="userSpaceOnUse">
<stop stop-color="#E7E7E7"/>
<stop offset="0.484375" stop-color="white"/>
<stop offset="1" stop-color="#E7E7E7"/>
</linearGradient>
<linearGradient id="paint9_linear_1_4425" x1="116.669" y1="87.6987" x2="116.669" y2="92.3806" gradientUnits="userSpaceOnUse">
<stop stop-color="#E7E7E7"/>
<stop offset="0.484375" stop-color="white"/>
<stop offset="1" stop-color="#E7E7E7"/>
</linearGradient>
<linearGradient id="paint10_linear_1_4425" x1="69.9405" y1="119.565" x2="69.9405" y2="124.247" gradientUnits="userSpaceOnUse">
<stop stop-color="#E7E7E7"/>
<stop offset="0.484375" stop-color="white"/>
<stop offset="1" stop-color="#E7E7E7"/>
</linearGradient>
<clipPath id="clip0_1_4425">
<rect width="123" height="123" fill="white"/>
</clipPath>
</defs>
</svg>
