<svg width="147" height="99" viewBox="0 0 147 99" fill="none" xmlns="http://www.w3.org/2000/svg">
<path d="M25.5226 36.2915C25.5191 36.0853 25.5148 35.8794 25.5148 35.6728C25.5148 15.9713 41.4861 0 61.1876 0C78.1657 0 92.3721 11.8613 95.9757 27.7494C99.3363 25.8682 103.207 24.7911 107.332 24.7911C120.203 24.7911 130.637 35.225 130.637 48.0959C130.637 48.6218 130.613 49.1423 130.579 49.6596C140.134 53.2067 146.943 62.404 146.943 73.1934C146.943 87.0541 135.707 98.2909 121.846 98.2909H32.3387C15.0126 98.2905 0.966797 84.2447 0.966797 66.9186C0.966797 51.9332 11.4741 39.4041 25.5226 36.2915Z" fill="url(#paint0_linear_1_3597)"/>
<defs>
<linearGradient id="paint0_linear_1_3597" x1="48.4668" y1="-77.791" x2="227.073" y2="94.2851" gradientUnits="userSpaceOnUse">
<stop offset="0.185704" stop-color="#EB98B7"/>
<stop offset="0.600775" stop-color="#EE3E80"/>
</linearGradient>
</defs>
</svg>
