<svg width="18" height="14" viewBox="0 0 18 14" fill="none" xmlns="http://www.w3.org/2000/svg">
<path d="M17.9999 7.11152C17.0203 9.1796 10.54 12.6439 8.76382 13.391C7.11331 13.9006 7.39037 11.1428 7.13112 9.90293H1.64328C0.752722 9.90293 0.0224609 9.21028 0.0224609 8.34643V6.02998C0.0224609 5.17009 0.747774 4.47348 1.64328 4.47348H7.03712C7.25976 2.85167 6.93817 0.0206666 8.76481 0.631196C10.5341 1.30604 17.8169 5.31852 17.9999 7.11152Z" fill="url(#paint0_linear_256_104)"/>
<path d="M18.0005 7.11193C17.0209 9.18001 10.5405 12.6443 8.76436 13.3914C7.11385 13.901 7.39092 11.1432 7.13166 9.90334H1.64383C0.25851 9.8697 -0.101674 8.68624 0.0230051 7.52851C4.9201 10.5604 12.1109 8.88019 15.0399 4.21167C16.5449 5.42085 17.9124 6.00764 18.0005 7.11193Z" fill="url(#paint1_linear_256_104)"/>
<path opacity="0.3" d="M8.4834 1.78662C11.6063 2.06171 15.311 4.3643 16.823 7.12108C13.7942 5.76595 10.9836 3.96815 8.4834 1.78662Z" fill="white"/>
<g opacity="0.7">
<path opacity="0.3" d="M0.69043 5.56811C2.36172 4.76067 4.53864 4.7577 6.20498 5.578C4.37599 5.8414 2.51846 5.83807 0.69043 5.56811Z" fill="white"/>
</g>
<defs>
<linearGradient id="paint0_linear_256_104" x1="13.9162" y1="-0.231658" x2="3.37889" y2="13.9223" gradientUnits="userSpaceOnUse">
<stop offset="0.24" stop-color="white"/>
<stop offset="1" stop-color="#B3B3B3"/>
</linearGradient>
<linearGradient id="paint1_linear_256_104" x1="11.3322" y1="1.47171" x2="5.33571" y2="16.5786" gradientUnits="userSpaceOnUse">
<stop stop-color="white"/>
<stop offset="0.26" stop-color="#E1E1E1"/>
<stop offset="0.54" stop-color="#C8C8C8"/>
<stop offset="0.8" stop-color="#B8B8B8"/>
<stop offset="1" stop-color="#B3B3B3"/>
</linearGradient>
</defs>
</svg>
