<svg width="298" height="259" viewBox="0 0 298 259" fill="none" xmlns="http://www.w3.org/2000/svg">
<g clip-path="url(#clip0_399_304)">
<path d="M59.8479 47.7296L53.1048 42.4101L53.6657 33.8395C53.6813 33.605 53.6188 33.3717 53.488 33.1764C53.1605 32.6858 52.4951 32.5529 52.0016 32.8787L44.8597 37.6498L36.8812 34.4698C36.6616 34.3816 36.4208 34.3702 36.195 34.4331C35.9214 34.5105 35.6896 34.6933 35.5507 34.9415C35.4118 35.1896 35.3771 35.4827 35.4542 35.7565L37.7821 44.0235L32.2908 50.6289C32.1629 50.7824 32.0805 50.9688 32.053 51.1667C32.0255 51.3647 32.054 51.5664 32.1354 51.749C32.2167 51.9315 32.3475 52.0877 32.5131 52.1997C32.6786 52.3117 32.8722 52.375 33.0719 52.3826L41.6543 52.7222L46.2397 59.985C46.3642 60.1844 46.5545 60.3368 46.7746 60.4175C47.3293 60.6218 47.9447 60.3393 48.1489 59.7846L51.1238 51.7263L59.4472 49.6088C59.6742 49.5505 59.877 49.4201 60.0231 49.2339C60.3943 48.7718 60.3118 48.0979 59.8479 47.7296ZM49.3046 49.7019L46.8311 56.403L43.0151 50.3653L35.8766 50.0823L40.4432 44.5897L38.5073 37.7125L45.1441 40.3575L51.0828 36.3916L50.6176 43.5176L56.2267 47.9427L49.3046 49.7019Z" fill="#E0E0E0"/>
</g>
<g clip-path="url(#clip1_399_304)">
<path d="M165.149 137.797L158.406 132.477L158.966 123.907C158.982 123.672 158.92 123.439 158.789 123.244C158.461 122.753 157.796 122.62 157.302 122.946L150.16 127.717L142.182 124.537C141.962 124.449 141.722 124.438 141.496 124.5C141.222 124.578 140.99 124.761 140.852 125.009C140.713 125.257 140.678 125.55 140.755 125.824L143.083 134.091L137.592 140.696C137.464 140.85 137.381 141.036 137.354 141.234C137.326 141.432 137.355 141.634 137.436 141.816C137.517 141.999 137.648 142.155 137.814 142.267C137.979 142.379 138.173 142.442 138.373 142.45L146.955 142.79L151.54 150.052C151.665 150.252 151.855 150.404 152.075 150.485C152.63 150.689 153.245 150.407 153.45 149.852L156.425 141.794L164.748 139.676C164.975 139.618 165.178 139.488 165.324 139.301C165.695 138.839 165.613 138.165 165.149 137.797ZM154.605 139.769L152.132 146.47L148.316 140.433L141.177 140.15L145.744 134.657L143.808 127.78L150.445 130.425L156.384 126.459L155.918 133.585L161.527 138.01L154.605 139.769Z" fill="#E0E0E0"/>
</g>
<g clip-path="url(#clip2_399_304)">
<path d="M205.141 46.3854L198.398 41.0659L198.959 32.4953C198.974 32.2607 198.912 32.0275 198.781 31.8322C198.453 31.3416 197.788 31.2087 197.295 31.5345L190.153 36.3056L182.174 33.1256C181.955 33.0374 181.714 33.0259 181.488 33.0889C181.214 33.1662 180.983 33.3491 180.844 33.5972C180.705 33.8454 180.67 34.1385 180.747 34.4122L183.075 42.6793L177.584 49.2847C177.456 49.4382 177.373 49.6245 177.346 49.8225C177.318 50.0205 177.347 50.2222 177.428 50.4047C177.51 50.5873 177.641 50.7434 177.806 50.8554C177.972 50.9674 178.165 51.0308 178.365 51.0383L186.947 51.378L191.533 58.6407C191.657 58.8402 191.847 58.9926 192.068 59.0733C192.622 59.2775 193.238 58.995 193.442 58.4404L196.417 50.3821L204.74 48.2646C204.967 48.2062 205.17 48.0759 205.316 47.8897C205.687 47.4276 205.605 46.7537 205.141 46.3854ZM194.598 48.3577L192.124 55.0587L188.308 49.021L181.17 48.738L185.736 43.2455L183.8 36.3682L190.437 39.0133L196.376 35.0473L195.911 42.1734L201.52 46.5985L194.598 48.3577Z" fill="#E0E0E0"/>
</g>
<g clip-path="url(#clip3_399_304)">
<path d="M264.18 124.466L257.437 119.146L257.998 110.576C258.013 110.341 257.951 110.108 257.82 109.913C257.493 109.422 256.827 109.289 256.334 109.615L249.192 114.386L241.213 111.206C240.994 111.118 240.753 111.107 240.527 111.169C240.253 111.247 240.022 111.43 239.883 111.678C239.744 111.926 239.709 112.219 239.786 112.493L242.114 120.76L236.623 127.365C236.495 127.519 236.412 127.705 236.385 127.903C236.358 128.101 236.386 128.303 236.467 128.485C236.549 128.668 236.68 128.824 236.845 128.936C237.011 129.048 237.204 129.111 237.404 129.119L245.986 129.459L250.572 136.721C250.696 136.921 250.887 137.073 251.107 137.154C251.661 137.358 252.277 137.076 252.481 136.521L255.456 128.463L263.779 126.345C264.006 126.287 264.209 126.156 264.355 125.97C264.726 125.508 264.644 124.834 264.18 124.466ZM253.637 126.438L251.163 133.139L247.347 127.102L240.209 126.819L244.775 121.326L242.839 114.449L249.476 117.094L255.415 113.128L254.95 120.254L260.559 124.679L253.637 126.438Z" fill="#E0E0E0"/>
</g>
<g clip-path="url(#clip4_399_304)">
<path d="M60.4075 181.598L53.6643 176.279L54.2252 167.708C54.2408 167.474 54.1783 167.24 54.0476 167.045C53.7201 166.554 53.0547 166.422 52.5612 166.747L45.4193 171.518L37.4408 168.338C37.2211 168.25 36.9804 168.239 36.7546 168.302C36.481 168.379 36.2492 168.562 36.1103 168.81C35.9714 169.058 35.9367 169.351 36.0138 169.625L38.3417 177.892L32.8504 184.498C32.7224 184.651 32.64 184.837 32.6125 185.035C32.5851 185.233 32.6136 185.435 32.6949 185.618C32.7763 185.8 32.9071 185.956 33.0726 186.068C33.2382 186.18 33.4318 186.244 33.6315 186.251L42.2139 186.591L46.7993 193.854C46.9238 194.053 47.1141 194.205 47.3342 194.286C47.8889 194.49 48.5042 194.208 48.7085 193.653L51.6833 185.595L60.0068 183.477C60.2337 183.419 60.4365 183.289 60.5827 183.103C60.9539 182.64 60.8713 181.967 60.4075 181.598ZM49.8641 183.571L47.3907 190.272L43.5747 184.234L36.4362 183.951L41.0028 178.458L39.0669 171.581L45.7037 174.226L51.6424 170.26L51.1772 177.386L56.7862 181.811L49.8641 183.571Z" fill="#E0E0E0"/>
</g>
<g clip-path="url(#clip5_399_304)">
<path d="M201.332 223.495L194.589 218.176L195.15 209.605C195.166 209.371 195.103 209.137 194.972 208.942C194.645 208.451 193.979 208.319 193.486 208.644L186.344 213.415L178.366 210.235C178.146 210.147 177.905 210.136 177.679 210.199C177.406 210.276 177.174 210.459 177.035 210.707C176.896 210.955 176.861 211.248 176.939 211.522L179.266 219.789L173.775 226.395C173.647 226.548 173.565 226.734 173.537 226.932C173.51 227.13 173.538 227.332 173.62 227.515C173.701 227.697 173.832 227.853 173.997 227.965C174.163 228.077 174.357 228.141 174.556 228.148L183.139 228.488L187.724 235.751C187.849 235.95 188.039 236.102 188.259 236.183C188.814 236.387 189.429 236.105 189.633 235.55L192.608 227.492L200.932 225.374C201.159 225.316 201.361 225.186 201.507 225C201.879 224.537 201.796 223.864 201.332 223.495ZM190.789 225.468L188.316 232.169L184.5 226.131L177.361 225.848L181.928 220.355L179.992 213.478L186.628 216.123L192.567 212.157L192.102 219.283L197.711 223.708L190.789 225.468Z" fill="#E0E0E0"/>
</g>
<path d="M41.3924 106.199H40.4384C40.1914 106.199 39.9912 106.4 39.9912 106.647C39.9912 106.894 40.1914 107.094 40.4384 107.094H41.3924C41.6394 107.094 41.8396 106.894 41.8396 106.647C41.8396 106.4 41.6394 106.199 41.3924 106.199Z" fill="#E0E0E0"/>
<path d="M67.1522 106.199H58.5048C58.4867 106.065 58.461 105.934 58.4271 105.805L65.0935 103.044C65.3217 102.949 65.4301 102.687 65.3356 102.459C65.2411 102.231 64.9794 102.123 64.7513 102.217L58.0834 104.979C58.0155 104.863 57.9411 104.752 57.8601 104.646L65.9995 96.5061C66.1741 96.3315 66.1741 96.0483 65.9995 95.8737C65.8248 95.6991 65.5416 95.6991 65.367 95.8737L57.2276 104.013C57.1213 103.932 57.0098 103.858 56.894 103.79L59.6559 97.1219C59.7504 96.8937 59.642 96.6321 59.4138 96.5376C59.1856 96.4431 58.924 96.5514 58.8295 96.7797L56.0682 103.446C55.9396 103.412 55.8079 103.387 55.6738 103.368V94.7209C55.6738 94.4739 55.4735 94.2737 55.2265 94.2737C54.9796 94.2737 54.7793 94.4739 54.7793 94.7209V103.368C54.6452 103.386 54.5134 103.412 54.3849 103.446L51.6235 96.7796C51.529 96.5514 51.2673 96.4431 51.0392 96.5376C50.811 96.6321 50.7026 96.8937 50.7972 97.1219L53.5591 103.79C53.4432 103.858 53.3317 103.932 53.2254 104.013L45.086 95.8737C44.9113 95.699 44.6281 95.699 44.4535 95.8737C44.2789 96.0483 44.2789 96.3315 44.4535 96.5061L52.593 104.645C52.5119 104.752 52.4375 104.863 52.3696 104.979L45.7018 102.217C45.4736 102.123 45.212 102.231 45.1175 102.459C45.0229 102.688 45.1313 102.949 45.3595 103.044L52.0259 105.805C51.9921 105.934 51.9664 106.065 51.9481 106.199H43.3007C43.0538 106.199 42.8535 106.4 42.8535 106.647C42.8535 106.894 43.0538 107.094 43.3007 107.094H51.9481C51.9662 107.228 51.9919 107.36 52.0258 107.488L45.3594 110.25C45.1312 110.344 45.0229 110.606 45.1174 110.834C45.1887 111.006 45.3553 111.11 45.5308 111.11C45.5878 111.11 45.6458 111.099 45.7017 111.076L52.3696 108.314C52.4374 108.43 52.5119 108.541 52.5929 108.648L44.4535 116.787C44.2788 116.962 44.2788 117.245 44.4535 117.42C44.5408 117.507 44.6553 117.551 44.7697 117.551C44.8841 117.551 44.9986 117.507 45.0859 117.42L53.2253 109.28C53.3316 109.361 53.4431 109.436 53.559 109.503L50.7971 116.171C50.7026 116.4 50.8109 116.661 51.0391 116.756C51.0951 116.779 51.1531 116.79 51.2101 116.79C51.3856 116.79 51.5521 116.686 51.6234 116.514L54.3848 109.847C54.5133 109.881 54.645 109.907 54.7792 109.925V118.572C54.7792 118.819 54.9794 119.019 55.2264 119.019C55.4734 119.019 55.6736 118.819 55.6736 118.572V109.925C55.8078 109.907 55.9395 109.881 56.0681 109.847L58.8294 116.514C58.9007 116.686 59.0673 116.79 59.2428 116.79C59.2998 116.79 59.3578 116.779 59.4137 116.756C59.6419 116.661 59.7503 116.4 59.6558 116.171L56.8938 109.504C57.0097 109.436 57.1212 109.361 57.2275 109.28L65.3669 117.42C65.4542 117.507 65.5687 117.551 65.6831 117.551C65.7976 117.551 65.9121 117.507 65.9994 117.42C66.174 117.245 66.174 116.962 65.9994 116.787L57.86 108.648C57.9409 108.541 58.0153 108.43 58.0833 108.314L64.7511 111.076C64.8071 111.099 64.8651 111.11 64.9221 111.11C65.0976 111.11 65.2641 111.006 65.3354 110.834C65.43 110.606 65.3216 110.344 65.0934 110.25L58.427 107.488C58.4608 107.36 58.4865 107.228 58.5047 107.094H67.1521C67.3991 107.094 67.5993 106.894 67.5993 106.647C67.5993 106.4 67.3992 106.199 67.1522 106.199ZM55.2265 109.062C53.8948 109.062 52.8115 107.978 52.8115 106.647C52.8115 105.315 53.8948 104.232 55.2265 104.232C56.5581 104.232 57.6415 105.315 57.6415 106.647C57.6415 107.978 56.5581 109.062 55.2265 109.062Z" fill="#E0E0E0"/>
<path d="M70.0163 106.199H69.0625C68.8155 106.199 68.6152 106.4 68.6152 106.647C68.6152 106.894 68.8155 107.094 69.0625 107.094H70.0163C70.2633 107.094 70.4636 106.894 70.4636 106.647C70.4636 106.4 70.2633 106.199 70.0163 106.199Z" fill="#E0E0E0"/>
<path d="M55.2275 120.033C54.9805 120.033 54.7803 120.234 54.7803 120.481V121.435C54.7803 121.682 54.9805 121.882 55.2275 121.882C55.4745 121.882 55.6747 121.682 55.6747 121.435V120.481C55.6747 120.234 55.4745 120.033 55.2275 120.033Z" fill="#E0E0E0"/>
<path d="M55.2275 93.2597C55.4745 93.2597 55.6747 93.0595 55.6747 92.8125V91.8586C55.6747 91.6116 55.4745 91.4114 55.2275 91.4114C54.9805 91.4114 54.7803 91.6116 54.7803 91.8586V92.8125C54.7803 93.0595 54.9805 93.2597 55.2275 93.2597Z" fill="#E0E0E0"/>
<path d="M123.285 62.3987H122.331C122.084 62.3987 121.884 62.5989 121.884 62.8459C121.884 63.0929 122.084 63.2931 122.331 63.2931H123.285C123.532 63.2931 123.732 63.0929 123.732 62.8459C123.732 62.5989 123.532 62.3987 123.285 62.3987Z" fill="#E0E0E0"/>
<path d="M149.045 62.3986H140.397C140.379 62.2645 140.354 62.1328 140.32 62.0042L146.986 59.2429C147.214 59.1484 147.323 58.8867 147.228 58.6586C147.134 58.4304 146.872 58.3221 146.644 58.4165L139.976 61.1785C139.908 61.0626 139.834 60.9511 139.753 60.8448L147.892 52.7054C148.067 52.5307 148.067 52.2475 147.892 52.0729C147.717 51.8983 147.434 51.8983 147.26 52.0729L139.12 60.2123C139.014 60.1313 138.902 60.0569 138.787 59.989L141.548 53.3212C141.643 53.093 141.535 52.8314 141.306 52.7368C141.078 52.6423 140.817 52.7506 140.722 52.9789L137.961 59.6453C137.832 59.6115 137.7 59.5858 137.566 59.5676V50.9201C137.566 50.6731 137.366 50.4729 137.119 50.4729C136.872 50.4729 136.672 50.6731 136.672 50.9201V59.5675C136.538 59.5857 136.406 59.6114 136.277 59.6453L133.516 52.9788C133.422 52.7506 133.16 52.6423 132.932 52.7368C132.704 52.8313 132.595 53.093 132.69 53.3211L135.452 59.989C135.336 60.0568 135.224 60.1312 135.118 60.2123L126.979 52.0729C126.804 51.8982 126.521 51.8982 126.346 52.0729C126.171 52.2475 126.171 52.5307 126.346 52.7053L134.486 60.8447C134.404 60.951 134.33 61.0625 134.262 61.1784L127.594 58.4165C127.366 58.3221 127.105 58.4304 127.01 58.6586C126.916 58.8868 127.024 59.1484 127.252 59.2429L133.918 62.0042C133.885 62.1328 133.859 62.2645 133.841 62.3986H125.193C124.946 62.3986 124.746 62.5989 124.746 62.8459C124.746 63.0929 124.946 63.2931 125.193 63.2931H133.841C133.859 63.4272 133.885 63.559 133.918 63.6875L127.252 66.4489C127.024 66.5434 126.915 66.805 127.01 67.0332C127.081 67.2054 127.248 67.3094 127.423 67.3094C127.48 67.3094 127.538 67.2984 127.594 67.2752L134.262 64.5132C134.33 64.6291 134.404 64.7406 134.485 64.8469L126.346 72.9863C126.171 73.161 126.171 73.4441 126.346 73.6187C126.433 73.706 126.548 73.7497 126.662 73.7497C126.777 73.7497 126.891 73.7061 126.978 73.6187L135.118 65.4793C135.224 65.5604 135.336 65.6348 135.452 65.7026L132.69 72.3705C132.595 72.5987 132.704 72.8603 132.932 72.9548C132.988 72.978 133.046 72.989 133.103 72.989C133.278 72.989 133.445 72.885 133.516 72.7128L136.277 66.0464C136.406 66.0802 136.538 66.1059 136.672 66.1241V74.7715C136.672 75.0185 136.872 75.2187 137.119 75.2187C137.366 75.2187 137.566 75.0185 137.566 74.7715V66.1242C137.7 66.106 137.832 66.0803 137.961 66.0465L140.722 72.7129C140.793 72.8851 140.96 72.9891 141.135 72.9891C141.192 72.9891 141.25 72.9781 141.306 72.9549C141.534 72.8604 141.643 72.5988 141.548 72.3706L138.786 65.7028C138.902 65.6349 139.014 65.5605 139.12 65.4795L147.26 73.6189C147.347 73.7062 147.461 73.7499 147.576 73.7499C147.69 73.7499 147.805 73.7062 147.892 73.6189C148.067 73.4442 148.067 73.161 147.892 72.9864L139.753 64.847C139.834 64.7407 139.908 64.6292 139.976 64.5133L146.644 67.2753C146.7 67.2985 146.758 67.3095 146.815 67.3095C146.99 67.3095 147.157 67.2055 147.228 67.0333C147.323 66.8051 147.214 66.5435 146.986 66.449L140.32 63.6877C140.353 63.5591 140.379 63.4273 140.397 63.2932H149.045C149.292 63.2932 149.492 63.093 149.492 62.846C149.492 62.599 149.292 62.3986 149.045 62.3986ZM137.119 65.2609C135.787 65.2609 134.704 64.1775 134.704 62.8459C134.704 61.5142 135.787 60.4309 137.119 60.4309C138.451 60.4309 139.534 61.5142 139.534 62.8459C139.534 64.1775 138.451 65.2609 137.119 65.2609Z" fill="#E0E0E0"/>
<path d="M151.909 62.3987H150.955C150.708 62.3987 150.508 62.5989 150.508 62.8459C150.508 63.0929 150.708 63.2931 150.955 63.2931H151.909C152.156 63.2931 152.356 63.0929 152.356 62.8459C152.356 62.5989 152.156 62.3987 151.909 62.3987Z" fill="#E0E0E0"/>
<path d="M137.12 76.2327C136.873 76.2327 136.673 76.4329 136.673 76.6799V77.6338C136.673 77.8808 136.873 78.081 137.12 78.081C137.367 78.081 137.567 77.8808 137.567 77.6338V76.6799C137.567 76.4329 137.367 76.2327 137.12 76.2327Z" fill="#E0E0E0"/>
<path d="M137.12 49.4589C137.367 49.4589 137.567 49.2587 137.567 49.0117V48.0578C137.567 47.8108 137.367 47.6106 137.12 47.6106C136.873 47.6106 136.673 47.8108 136.673 48.0578V49.0117C136.673 49.2587 136.873 49.4589 137.12 49.4589Z" fill="#E0E0E0"/>
<path d="M237.553 193.803H236.599C236.352 193.803 236.151 194.003 236.151 194.25C236.151 194.497 236.352 194.697 236.599 194.697H237.553C237.8 194.697 238 194.497 238 194.25C238 194.003 237.8 193.803 237.553 193.803Z" fill="#E0E0E0"/>
<path d="M263.312 193.803H254.665C254.647 193.669 254.621 193.537 254.587 193.408L261.254 190.647C261.482 190.552 261.59 190.291 261.496 190.063C261.401 189.834 261.14 189.726 260.911 189.821L254.244 192.583C254.176 192.467 254.101 192.355 254.02 192.249L262.16 184.109C262.334 183.935 262.334 183.652 262.16 183.477C261.985 183.302 261.702 183.302 261.527 183.477L253.388 191.616C253.281 191.535 253.17 191.461 253.054 191.393L255.816 184.725C255.911 184.497 255.802 184.235 255.574 184.141C255.346 184.046 255.084 184.155 254.99 184.383L252.228 191.049C252.1 191.016 251.968 190.99 251.834 190.972V182.324C251.834 182.077 251.634 181.877 251.387 181.877C251.14 181.877 250.939 182.077 250.939 182.324V190.972C250.805 190.99 250.674 191.015 250.545 191.049L247.784 184.383C247.689 184.155 247.427 184.046 247.199 184.141C246.971 184.235 246.863 184.497 246.957 184.725L249.719 191.393C249.603 191.461 249.492 191.535 249.386 191.616L241.246 183.477C241.071 183.302 240.788 183.302 240.614 183.477C240.439 183.652 240.439 183.935 240.614 184.109L248.753 192.249C248.672 192.355 248.598 192.467 248.53 192.582L241.862 189.821C241.634 189.726 241.372 189.834 241.278 190.063C241.183 190.291 241.291 190.552 241.52 190.647L248.186 193.408C248.152 193.537 248.127 193.669 248.108 193.803H239.461C239.214 193.803 239.014 194.003 239.014 194.25C239.014 194.497 239.214 194.697 239.461 194.697H248.108C248.126 194.831 248.152 194.963 248.186 195.092L241.52 197.853C241.291 197.947 241.183 198.209 241.278 198.437C241.349 198.609 241.515 198.713 241.691 198.713C241.748 198.713 241.806 198.702 241.862 198.679L248.53 195.917C248.598 196.033 248.672 196.145 248.753 196.251L240.614 204.39C240.439 204.565 240.439 204.848 240.614 205.023C240.701 205.11 240.815 205.154 240.93 205.154C241.044 205.154 241.159 205.11 241.246 205.023L249.385 196.883C249.492 196.964 249.603 197.039 249.719 197.107L246.957 203.775C246.863 204.003 246.971 204.264 247.199 204.359C247.255 204.382 247.313 204.393 247.37 204.393C247.546 204.393 247.712 204.289 247.784 204.117L250.545 197.45C250.673 197.484 250.805 197.51 250.939 197.528V206.176C250.939 206.423 251.14 206.623 251.387 206.623C251.634 206.623 251.834 206.423 251.834 206.176V197.528C251.968 197.51 252.1 197.484 252.228 197.451L254.99 204.117C255.061 204.289 255.227 204.393 255.403 204.393C255.46 204.393 255.518 204.382 255.574 204.359C255.802 204.264 255.91 204.003 255.816 203.775L253.054 197.107C253.17 197.039 253.281 196.965 253.388 196.884L261.527 205.023C261.614 205.11 261.729 205.154 261.843 205.154C261.958 205.154 262.072 205.11 262.16 205.023C262.334 204.848 262.334 204.565 262.16 204.39L254.02 196.251C254.101 196.145 254.176 196.033 254.243 195.917L260.911 198.679C260.967 198.703 261.025 198.714 261.082 198.714C261.258 198.714 261.424 198.61 261.496 198.437C261.59 198.209 261.482 197.948 261.254 197.853L254.587 195.092C254.621 194.963 254.647 194.831 254.665 194.697H263.312C263.559 194.697 263.759 194.497 263.759 194.25C263.759 194.003 263.559 193.803 263.312 193.803ZM251.387 196.665C250.055 196.665 248.972 195.582 248.972 194.25C248.972 192.918 250.055 191.835 251.387 191.835C252.718 191.835 253.802 192.918 253.802 194.25C253.802 195.582 252.718 196.665 251.387 196.665Z" fill="#E0E0E0"/>
<path d="M266.177 193.803H265.223C264.976 193.803 264.775 194.003 264.775 194.25C264.775 194.497 264.976 194.697 265.223 194.697H266.177C266.423 194.697 266.624 194.497 266.624 194.25C266.624 194.003 266.423 193.803 266.177 193.803Z" fill="#E0E0E0"/>
<path d="M251.388 207.637C251.141 207.637 250.94 207.837 250.94 208.084V209.038C250.94 209.285 251.141 209.485 251.388 209.485C251.635 209.485 251.835 209.285 251.835 209.038V208.084C251.835 207.837 251.635 207.637 251.388 207.637Z" fill="#E0E0E0"/>
<path d="M251.388 180.863C251.635 180.863 251.835 180.663 251.835 180.416V179.462C251.835 179.215 251.635 179.015 251.388 179.015C251.141 179.015 250.94 179.215 250.94 179.462V180.416C250.94 180.663 251.141 180.863 251.388 180.863Z" fill="#E0E0E0"/>
<path d="M237.553 73.8245H236.599C236.352 73.8245 236.151 74.0247 236.151 74.2717C236.151 74.5187 236.352 74.7189 236.599 74.7189H237.553C237.8 74.7189 238 74.5187 238 74.2717C238 74.0247 237.8 73.8245 237.553 73.8245Z" fill="#E0E0E0"/>
<path d="M263.312 73.8244H254.665C254.647 73.6903 254.621 73.5585 254.587 73.43L261.254 70.6687C261.482 70.5742 261.59 70.3125 261.496 70.0844C261.401 69.8562 261.14 69.7479 260.911 69.8423L254.244 72.6042C254.176 72.4884 254.101 72.3769 254.02 72.2705L262.16 64.1311C262.334 63.9565 262.334 63.6733 262.16 63.4987C261.985 63.3241 261.702 63.3241 261.527 63.4987L253.388 71.6381C253.281 71.5571 253.17 71.4827 253.054 71.4148L255.816 64.7469C255.911 64.5187 255.802 64.2571 255.574 64.1626C255.346 64.0681 255.084 64.1764 254.99 64.4047L252.228 71.0711C252.1 71.0372 251.968 71.0115 251.834 70.9933V62.3459C251.834 62.0989 251.634 61.8987 251.387 61.8987C251.14 61.8987 250.939 62.0989 250.939 62.3459V70.9933C250.805 71.0115 250.674 71.0372 250.545 71.071L247.784 64.4046C247.689 64.1764 247.427 64.0681 247.199 64.1626C246.971 64.2571 246.863 64.5187 246.957 64.7469L249.719 71.4147C249.603 71.4826 249.492 71.557 249.386 71.6381L241.246 63.4987C241.071 63.324 240.788 63.324 240.614 63.4987C240.439 63.6733 240.439 63.9565 240.614 64.1311L248.753 72.2705C248.672 72.3768 248.598 72.4883 248.53 72.6042L241.862 69.8423C241.634 69.7479 241.372 69.8562 241.278 70.0844C241.183 70.3126 241.291 70.5742 241.52 70.6687L248.186 73.43C248.152 73.5585 248.127 73.6903 248.108 73.8244H239.461C239.214 73.8244 239.014 74.0247 239.014 74.2716C239.014 74.5186 239.214 74.7189 239.461 74.7189H248.108C248.126 74.853 248.152 74.9848 248.186 75.1133L241.52 77.8746C241.291 77.9691 241.183 78.2308 241.278 78.4589C241.349 78.6311 241.515 78.7351 241.691 78.7351C241.748 78.7351 241.806 78.7242 241.862 78.701L248.53 75.939C248.598 76.0549 248.672 76.1664 248.753 76.2727L240.614 84.4121C240.439 84.5867 240.439 84.8699 240.614 85.0445C240.701 85.1318 240.815 85.1755 240.93 85.1755C241.044 85.1755 241.159 85.1319 241.246 85.0445L249.385 76.9051C249.492 76.9862 249.603 77.0606 249.719 77.1284L246.957 83.7963C246.863 84.0245 246.971 84.2861 247.199 84.3806C247.255 84.4038 247.313 84.4148 247.37 84.4148C247.546 84.4148 247.712 84.3108 247.784 84.1386L250.545 77.4721C250.673 77.5059 250.805 77.5316 250.939 77.5499V86.1973C250.939 86.4443 251.14 86.6445 251.387 86.6445C251.634 86.6445 251.834 86.4443 251.834 86.1973V77.55C251.968 77.5318 252.1 77.5061 252.228 77.4723L254.99 84.1387C255.061 84.3109 255.227 84.4149 255.403 84.4149C255.46 84.4149 255.518 84.4039 255.574 84.3807C255.802 84.2862 255.91 84.0246 255.816 83.7964L253.054 77.1285C253.17 77.0607 253.281 76.9863 253.388 76.9052L261.527 85.0446C261.614 85.1319 261.729 85.1756 261.843 85.1756C261.958 85.1756 262.072 85.132 262.16 85.0446C262.334 84.87 262.334 84.5868 262.16 84.4122L254.02 76.2728C254.101 76.1665 254.176 76.055 254.243 75.9391L260.911 78.7011C260.967 78.7243 261.025 78.7353 261.082 78.7353C261.258 78.7353 261.424 78.6313 261.496 78.4591C261.59 78.2309 261.482 77.9693 261.254 77.8747L254.587 75.1134C254.621 74.9849 254.647 74.8531 254.665 74.719H263.312C263.559 74.719 263.759 74.5188 263.759 74.2718C263.759 74.0248 263.559 73.8244 263.312 73.8244ZM251.387 76.6866C250.055 76.6866 248.972 75.6033 248.972 74.2716C248.972 72.94 250.055 71.8567 251.387 71.8567C252.718 71.8567 253.802 72.94 253.802 74.2716C253.802 75.6033 252.718 76.6866 251.387 76.6866Z" fill="#E0E0E0"/>
<path d="M266.177 73.8245H265.223C264.976 73.8245 264.775 74.0247 264.775 74.2717C264.775 74.5187 264.976 74.7189 265.223 74.7189H266.177C266.423 74.7189 266.624 74.5187 266.624 74.2717C266.624 74.0247 266.423 73.8245 266.177 73.8245Z" fill="#E0E0E0"/>
<path d="M251.388 87.6584C251.141 87.6584 250.94 87.8587 250.94 88.1057V89.0596C250.94 89.3065 251.141 89.5068 251.388 89.5068C251.635 89.5068 251.835 89.3065 251.835 89.0596V88.1057C251.835 87.8587 251.635 87.6584 251.388 87.6584Z" fill="#E0E0E0"/>
<path d="M251.388 60.8847C251.635 60.8847 251.835 60.6845 251.835 60.4375V59.4836C251.835 59.2366 251.635 59.0364 251.388 59.0364C251.141 59.0364 250.94 59.2366 250.94 59.4836V60.4375C250.94 60.6845 251.141 60.8847 251.388 60.8847Z" fill="#E0E0E0"/>
<path d="M66.1512 235.699H65.1972C64.9502 235.699 64.75 235.9 64.75 236.147C64.75 236.394 64.9502 236.594 65.1972 236.594H66.1512C66.3982 236.594 66.5984 236.394 66.5984 236.147C66.5984 235.9 66.3982 235.699 66.1512 235.699Z" fill="#E0E0E0"/>
<path d="M91.911 235.699H83.2636C83.2454 235.565 83.2197 235.434 83.1859 235.305L89.8523 232.544C90.0805 232.449 90.1889 232.187 90.0944 231.959C89.9998 231.731 89.7382 231.623 89.51 231.717L82.8422 234.479C82.7743 234.363 82.6999 234.252 82.6189 234.146L90.7583 226.006C90.9329 225.831 90.9329 225.548 90.7583 225.374C90.5836 225.199 90.3004 225.199 90.1258 225.374L81.9864 233.513C81.8801 233.432 81.7686 233.358 81.6527 233.29L84.4147 226.622C84.5092 226.394 84.4008 226.132 84.1726 226.038C83.9444 225.943 83.6828 226.051 83.5883 226.28L80.827 232.946C80.6984 232.912 80.5667 232.887 80.4326 232.868V224.221C80.4326 223.974 80.2323 223.774 79.9853 223.774C79.7383 223.774 79.5381 223.974 79.5381 224.221V232.868C79.4039 232.886 79.2722 232.912 79.1437 232.946L76.3823 226.28C76.2878 226.051 76.0261 225.943 75.798 226.038C75.5698 226.132 75.4614 226.394 75.5559 226.622L78.3179 233.29C78.202 233.358 78.0905 233.432 77.9842 233.513L69.8448 225.374C69.6701 225.199 69.3869 225.199 69.2123 225.374C69.0377 225.548 69.0377 225.831 69.2123 226.006L77.3517 234.145C77.2707 234.252 77.1963 234.363 77.1284 234.479L70.4606 231.717C70.2324 231.623 69.9708 231.731 69.8763 231.959C69.7817 232.188 69.8901 232.449 70.1183 232.544L76.7847 235.305C76.7509 235.434 76.7252 235.565 76.7069 235.699H68.0595C67.8125 235.699 67.6123 235.9 67.6123 236.147C67.6123 236.394 67.8125 236.594 68.0595 236.594H76.7069C76.725 236.728 76.7507 236.86 76.7846 236.988L70.1182 239.75C69.89 239.844 69.7817 240.106 69.8762 240.334C69.9475 240.506 70.1141 240.61 70.2895 240.61C70.3466 240.61 70.4046 240.599 70.4605 240.576L77.1284 237.814C77.1962 237.93 77.2706 238.041 77.3517 238.148L69.2123 246.287C69.0376 246.462 69.0376 246.745 69.2123 246.92C69.2996 247.007 69.4141 247.051 69.5285 247.051C69.6429 247.051 69.7574 247.007 69.8447 246.92L77.9841 238.78C78.0904 238.861 78.2019 238.936 78.3178 239.003L75.5559 245.671C75.4614 245.9 75.5697 246.161 75.7979 246.256C75.8539 246.279 75.9119 246.29 75.9689 246.29C76.1444 246.29 76.3109 246.186 76.3822 246.014L79.1435 239.347C79.2721 239.381 79.4038 239.407 79.538 239.425V248.072C79.538 248.319 79.7382 248.519 79.9852 248.519C80.2322 248.519 80.4324 248.319 80.4324 248.072V239.425C80.5666 239.407 80.6983 239.381 80.8269 239.347L83.5882 246.014C83.6595 246.186 83.8261 246.29 84.0015 246.29C84.0586 246.29 84.1166 246.279 84.1725 246.256C84.4007 246.161 84.5091 245.9 84.4145 245.671L81.6526 239.004C81.7685 238.936 81.88 238.861 81.9863 238.78L90.1257 246.92C90.213 247.007 90.3275 247.051 90.4419 247.051C90.5564 247.051 90.6708 247.007 90.7581 246.92C90.9328 246.745 90.9328 246.462 90.7581 246.287L82.6187 238.148C82.6997 238.041 82.7741 237.93 82.8421 237.814L89.5099 240.576C89.5659 240.599 89.6239 240.61 89.6809 240.61C89.8564 240.61 90.0229 240.506 90.0942 240.334C90.1887 240.106 90.0804 239.844 89.8522 239.75L83.1858 236.988C83.2196 236.86 83.2453 236.728 83.2635 236.594H91.9109C92.1579 236.594 92.3581 236.394 92.3581 236.147C92.3581 235.9 92.158 235.699 91.911 235.699ZM79.9853 238.562C78.6536 238.562 77.5703 237.478 77.5703 236.147C77.5703 234.815 78.6536 233.732 79.9853 233.732C81.3169 233.732 82.4003 234.815 82.4003 236.147C82.4003 237.478 81.3169 238.562 79.9853 238.562Z" fill="#E0E0E0"/>
<path d="M94.7751 235.699H93.8212C93.5743 235.699 93.374 235.9 93.374 236.147C93.374 236.394 93.5743 236.594 93.8212 236.594H94.7751C95.0221 236.594 95.2224 236.394 95.2224 236.147C95.2224 235.9 95.0221 235.699 94.7751 235.699Z" fill="#E0E0E0"/>
<path d="M79.9863 249.533C79.7393 249.533 79.5391 249.734 79.5391 249.981V250.935C79.5391 251.182 79.7393 251.382 79.9863 251.382C80.2333 251.382 80.4335 251.182 80.4335 250.935V249.981C80.4335 249.734 80.2333 249.533 79.9863 249.533Z" fill="#E0E0E0"/>
<path d="M79.9863 222.76C80.2333 222.76 80.4335 222.56 80.4335 222.313V221.359C80.4335 221.112 80.2333 220.912 79.9863 220.912C79.7393 220.912 79.5391 221.112 79.5391 221.359V222.313C79.5391 222.56 79.7393 222.76 79.9863 222.76Z" fill="#E0E0E0"/>
<path d="M78.7942 156.876C80.8977 156.876 82.603 155.171 82.603 153.067C82.603 150.964 80.8977 149.258 78.7942 149.258C76.6906 149.258 74.9854 150.964 74.9854 153.067C74.9854 155.171 76.6906 156.876 78.7942 156.876Z" stroke="#E0E0E0" stroke-width="1.90441" stroke-linecap="round" stroke-linejoin="round"/>
<path d="M88.7922 166.874C90.8958 166.874 92.601 165.169 92.601 163.065C92.601 160.962 90.8958 159.256 88.7922 159.256C86.6887 159.256 84.9834 160.962 84.9834 163.065C84.9834 165.169 86.6887 166.874 88.7922 166.874Z" stroke="#E0E0E0" stroke-width="1.90441" stroke-linecap="round" stroke-linejoin="round"/>
<path d="M88.7922 156.876C90.8958 156.876 92.601 155.171 92.601 153.067C92.601 150.964 90.8958 149.258 88.7922 149.258C86.6887 149.258 84.9834 150.964 84.9834 153.067C84.9834 155.171 86.6887 156.876 88.7922 156.876Z" stroke="#E0E0E0" stroke-width="1.90441" stroke-linecap="round" stroke-linejoin="round"/>
<path d="M78.7942 166.874C80.8977 166.874 82.603 165.169 82.603 163.065C82.603 160.962 80.8977 159.256 78.7942 159.256C76.6906 159.256 74.9854 160.962 74.9854 163.065C74.9854 165.169 76.6906 166.874 78.7942 166.874Z" stroke="#E0E0E0" stroke-width="1.90441" stroke-linecap="round" stroke-linejoin="round"/>
<path d="M156.875 179.729C158.979 179.729 160.684 178.024 160.684 175.92C160.684 173.817 158.979 172.112 156.875 172.112C154.772 172.112 153.066 173.817 153.066 175.92C153.066 178.024 154.772 179.729 156.875 179.729Z" stroke="#E0E0E0" stroke-width="1.90441" stroke-linecap="round" stroke-linejoin="round"/>
<path d="M166.873 189.727C168.977 189.727 170.682 188.022 170.682 185.918C170.682 183.815 168.977 182.109 166.873 182.109C164.77 182.109 163.064 183.815 163.064 185.918C163.064 188.022 164.77 189.727 166.873 189.727Z" stroke="#E0E0E0" stroke-width="1.90441" stroke-linecap="round" stroke-linejoin="round"/>
<path d="M166.873 179.729C168.977 179.729 170.682 178.024 170.682 175.92C170.682 173.817 168.977 172.112 166.873 172.112C164.77 172.112 163.064 173.817 163.064 175.92C163.064 178.024 164.77 179.729 166.873 179.729Z" stroke="#E0E0E0" stroke-width="1.90441" stroke-linecap="round" stroke-linejoin="round"/>
<path d="M156.875 189.727C158.979 189.727 160.684 188.022 160.684 185.918C160.684 183.815 158.979 182.109 156.875 182.109C154.772 182.109 153.066 183.815 153.066 185.918C153.066 188.022 154.772 189.727 156.875 189.727Z" stroke="#E0E0E0" stroke-width="1.90441" stroke-linecap="round" stroke-linejoin="round"/>
<path d="M194.964 101.648C197.068 101.648 198.773 99.9424 198.773 97.8389C198.773 95.7353 197.068 94.03 194.964 94.03C192.861 94.03 191.155 95.7353 191.155 97.8389C191.155 99.9424 192.861 101.648 194.964 101.648Z" stroke="#E0E0E0" stroke-width="1.90441" stroke-linecap="round" stroke-linejoin="round"/>
<path d="M204.962 111.646C207.066 111.646 208.771 109.941 208.771 107.837C208.771 105.734 207.066 104.028 204.962 104.028C202.859 104.028 201.153 105.734 201.153 107.837C201.153 109.941 202.859 111.646 204.962 111.646Z" stroke="#E0E0E0" stroke-width="1.90441" stroke-linecap="round" stroke-linejoin="round"/>
<path d="M204.962 101.648C207.066 101.648 208.771 99.9424 208.771 97.8389C208.771 95.7353 207.066 94.03 204.962 94.03C202.859 94.03 201.153 95.7353 201.153 97.8389C201.153 99.9424 202.859 101.648 204.962 101.648Z" stroke="#E0E0E0" stroke-width="1.90441" stroke-linecap="round" stroke-linejoin="round"/>
<path d="M194.964 111.646C197.068 111.646 198.773 109.941 198.773 107.837C198.773 105.734 197.068 104.028 194.964 104.028C192.861 104.028 191.155 105.734 191.155 107.837C191.155 109.941 192.861 111.646 194.964 111.646Z" stroke="#E0E0E0" stroke-width="1.90441" stroke-linecap="round" stroke-linejoin="round"/>
<path d="M96.4926 93.3165L92.5568 99.6645L96.4926 106.266L92.3029 113.63L90.0176 112.488L93.4455 106.266L89.5098 99.6645L94.2073 92.1738L96.4926 93.3165ZM104.364 93.1895L100.428 99.6645L104.364 106.013L100.174 113.376L97.8892 112.234L101.317 106.013L97.3813 99.6645L102.079 92.0469L104.364 93.1895ZM112.363 93.1895L108.427 99.6645L112.363 106.013L108.173 113.376L105.888 112.234L109.316 106.013L105.38 99.6645L110.077 92.0469L112.363 93.1895Z" fill="#E0E0E0"/>
<path d="M205.041 148.545L201.106 154.893L205.041 161.495L200.852 168.858L198.566 167.716L201.994 161.495L198.059 154.893L202.756 147.402L205.041 148.545ZM212.913 148.418L208.977 154.893L212.913 161.241L208.723 168.605L206.438 167.462L209.866 161.241L205.93 154.893L210.628 147.275L212.913 148.418ZM220.912 148.418L216.976 154.893L220.912 161.241L216.722 168.605L214.437 167.462L217.864 161.241L213.929 154.893L218.626 147.275L220.912 148.418Z" fill="#E0E0E0"/>
<path d="M111.724 199.963L107.788 206.311L111.724 212.913L107.534 220.277L105.249 219.135L108.677 212.913L104.741 206.311L109.439 198.821L111.724 199.963ZM119.596 199.836L115.66 206.311L119.596 212.66L115.406 220.023L113.121 218.881L116.549 212.66L112.613 206.311L117.31 198.694L119.596 199.836ZM127.594 199.836L123.658 206.311L127.594 212.66L123.404 220.023L121.119 218.881L124.547 212.66L120.611 206.311L125.309 198.694L127.594 199.836Z" fill="#E0E0E0"/>
<path d="M245.032 20.9488L241.096 27.2968L245.032 33.8988L240.842 41.2625L238.557 40.1199L241.985 33.8988L238.049 27.2968L242.746 19.8062L245.032 20.9488ZM252.903 20.8218L248.967 27.2968L252.903 33.6449L248.714 41.0086L246.428 39.866L249.856 33.6449L245.92 27.2968L250.618 19.6792L252.903 20.8218ZM260.902 20.8218L256.966 27.2968L260.902 33.6449L256.712 41.0086L254.427 39.866L257.855 33.6449L253.919 27.2968L258.616 19.6792L260.902 20.8218Z" fill="#E0E0E0"/>
<path d="M100.3 22.8533L96.3644 29.2014L100.3 35.8033L96.1105 43.1671L93.8252 42.0244L97.2532 35.8033L93.3174 29.2014L98.0149 21.7107L100.3 22.8533ZM108.172 22.7264L104.236 29.2014L108.172 35.5494L103.982 42.9132L101.697 41.7705L105.125 35.5494L101.189 29.2014L105.887 21.5837L108.172 22.7264ZM116.17 22.7264L112.235 29.2014L116.17 35.5494L111.981 42.9132L109.695 41.7705L113.123 35.5494L109.187 29.2014L113.885 21.5837L116.17 22.7264Z" fill="#E0E0E0"/>
<defs>
<clipPath id="clip0_399_304">
<rect width="34.2794" height="34.2794" fill="white" transform="translate(39.4365 22.2932) rotate(30)"/>
</clipPath>
<clipPath id="clip1_399_304">
<rect width="34.2794" height="34.2794" fill="white" transform="translate(144.733 112.36) rotate(30)"/>
</clipPath>
<clipPath id="clip2_399_304">
<rect width="34.2794" height="34.2794" fill="white" transform="translate(184.729 20.9485) rotate(30)"/>
</clipPath>
<clipPath id="clip3_399_304">
<rect width="34.2794" height="34.2794" fill="white" transform="translate(243.767 99.0291) rotate(30)"/>
</clipPath>
<clipPath id="clip4_399_304">
<rect width="34.2794" height="34.2794" fill="white" transform="translate(39.9912 156.162) rotate(30)"/>
</clipPath>
<clipPath id="clip5_399_304">
<rect width="34.2794" height="34.2794" fill="white" transform="translate(180.921 198.059) rotate(30)"/>
</clipPath>
</defs>
</svg>
