<svg width="66" height="14" viewBox="0 0 66 14" fill="none" xmlns="http://www.w3.org/2000/svg">
<path d="M65.0368 3.87892V10.4201C65.0393 10.874 64.8741 11.3237 64.5507 11.7436C64.2273 12.1634 63.752 12.5452 63.1518 12.8672C62.5517 13.1891 61.8384 13.4448 61.0529 13.6198C60.2674 13.7948 59.4249 13.8855 58.5736 13.8869H6.92149C5.20193 13.8841 3.55486 13.5174 2.34234 12.8673C1.12983 12.2172 0.451145 11.3369 0.455588 10.4201V3.87892C0.451145 2.96209 1.12983 2.08184 2.34234 1.43173C3.55486 0.781622 5.20193 0.414865 6.92149 0.412109H58.5736C59.423 0.41274 60.2638 0.502903 61.0476 0.677414C61.8314 0.851924 62.5428 1.10734 63.1407 1.42897C63.7439 1.7506 64.2219 2.13261 64.5473 2.55306C64.8727 2.9735 65.039 3.42409 65.0368 3.87892Z" fill="#30A49B"/>
<g style="mix-blend-mode:screen" opacity="0.49">
<g style="mix-blend-mode:screen" opacity="0.49">
<path d="M61.3258 2.49599C60.7595 2.19175 60.0858 1.95036 59.3435 1.78578C58.6013 1.6212 57.8051 1.53668 57.0012 1.53711H8.15134C6.52544 1.53987 4.9681 1.88668 3.82154 2.50134C2.67499 3.11601 2.03306 3.94823 2.03676 4.81512V5.94347C2.03675 5.07786 2.68029 4.24755 3.82644 3.6345C4.9726 3.02144 6.52786 2.67565 8.15134 2.6729H56.9929C57.797 2.67266 58.5932 2.75741 59.3355 2.92225C60.0778 3.08709 60.7514 3.32875 61.3174 3.63325C62.4659 4.24905 63.1095 5.08249 63.1074 5.9509V4.8285C63.1129 4.39633 62.9584 3.96782 62.6527 3.56756C62.3469 3.16729 61.896 2.80314 61.3258 2.49599Z" fill="#30A49B"/>
</g>
</g>
<g style="mix-blend-mode:multiply" opacity="0.19">
<g style="mix-blend-mode:multiply" opacity="0.19">
<path d="M58.3943 7.71291H6.74498C5.02542 7.71015 3.37828 7.3434 2.16576 6.69329C0.953246 6.04318 0.274631 5.16293 0.279074 4.24609V10.4215C0.274631 11.3384 0.953246 12.2186 2.16576 12.8687C3.37828 13.5188 5.02542 13.8856 6.74498 13.8884H58.3943C59.2458 13.8872 60.0886 13.7966 60.8745 13.6217C61.6603 13.4468 62.3739 13.1911 62.9743 12.8692C63.5748 12.5472 64.0504 12.1654 64.3739 11.7454C64.6975 11.3254 64.8627 10.8756 64.8602 10.4215V4.24609C64.8627 4.70012 64.6975 5.14997 64.3739 5.56994C64.0504 5.98991 63.5748 6.37177 62.9743 6.69372C62.3739 7.01566 61.6603 7.27137 60.8745 7.44625C60.0886 7.62112 59.2458 7.71174 58.3943 7.71291Z" fill="#5C647B"/>
</g>
</g>
<g style="mix-blend-mode:multiply" opacity="0.42">
<g style="mix-blend-mode:multiply" opacity="0.42">
<path d="M58.3943 12.5781H6.74498C5.02542 12.5754 3.37828 12.2086 2.16576 11.5585C0.953246 10.9084 0.274631 10.0282 0.279074 9.11133V10.421C0.274631 11.3379 0.953246 12.2181 2.16576 12.8682C3.37828 13.5183 5.02542 13.8851 6.74498 13.8879H58.3943C59.2458 13.8867 60.0886 13.7961 60.8745 13.6212C61.6603 13.4463 62.3739 13.1906 62.9743 12.8687C63.5748 12.5467 64.0504 12.1649 64.3739 11.7449C64.6975 11.3249 64.8627 10.8751 64.8602 10.421V9.11133C64.8627 9.56535 64.6975 10.0152 64.3739 10.4352C64.0504 10.8551 63.5748 11.237 62.9743 11.559C62.3739 11.8809 61.6603 12.1366 60.8745 12.3115C60.0886 12.4864 59.2458 12.577 58.3943 12.5781Z" fill="#5C647B"/>
</g>
</g>
<g style="mix-blend-mode:screen" opacity="0.49">
<g style="mix-blend-mode:screen" opacity="0.49">
<path d="M35.6348 0.412109L13.5938 13.8869H7.57397L28.5555 0.412109H35.6348Z" fill="#30A49B"/>
</g>
</g>
<g style="mix-blend-mode:screen" opacity="0.49">
<g style="mix-blend-mode:screen" opacity="0.49">
<path d="M60.2657 0.534014L40.8707 13.8869H22.2482L45.1897 0.412109H58.5733C59.1451 0.412188 59.7144 0.453189 60.2657 0.534014Z" fill="#30A49B"/>
</g>
</g>
</svg>
